<?xml version="1.0" encoding="UTF-8" standalone="no"?>
<!DOCTYPE svg PUBLIC "-//W3C//DTD SVG 1.1//EN" "http://www.w3.org/Graphics/SVG/1.1/DTD/svg11.dtd">
<svg width="100%" height="100%" viewBox="0 0 3000 3000" version="1.1" xmlns="http://www.w3.org/2000/svg" xmlns:xlink="http://www.w3.org/1999/xlink" xml:space="preserve" xmlns:serif="http://www.serif.com/" style="fill-rule:evenodd;clip-rule:evenodd;stroke-linecap:round;stroke-linejoin:round;">
    <g id="Layer-1" serif:id="Layer 1">
        <circle id="path1" cx="1500" cy="1500" r="1500" style="fill:rgb(123,186,168);"/>
    </g>
    <g id="Layer-2" serif:id="Layer 2">
        <circle id="path2" cx="1498.268" cy="1500" r="1400" style="fill:rgb(46,52,64);"/>
    </g>
    <g id="Layer-3" serif:id="Layer 3">
        <path id="path3" d="M179.079,1192.101L314.613,1192.101L179.079,1192.101Z" style="fill:rgb(193,96,105);fill-rule:nonzero;stroke:rgb(193,96,105);stroke-width:75.52px;"/>
        <path id="path4" d="M132.455,1292.443L481.656,1292.443L132.455,1292.443Z" style="fill:rgb(193,96,105);fill-rule:nonzero;stroke:rgb(193,96,105);stroke-width:75.52px;"/>
        <path id="path5" d="M140.483,1436.94L473.628,1436.94L140.483,1436.94Z" style="fill:rgb(193,96,105);fill-rule:nonzero;stroke:rgb(193,96,105);stroke-width:75.52px;"/>
        <path id="path6" d="M545.877,1292.443L614.111,1292.443L545.877,1292.443Z" style="fill:rgb(193,96,105);fill-rule:nonzero;stroke:rgb(193,96,105);stroke-width:75.52px;"/>
        <path id="path7" d="M748.79,1438.73L565.946,1440.954L748.79,1438.73Z" style="fill:rgb(193,96,105);fill-rule:nonzero;stroke:rgb(193,96,105);stroke-width:75.52px;"/>
        <path id="path8" d="M317.09,1545.312L409.407,1545.312L317.09,1545.312Z" style="fill:rgb(193,96,105);fill-rule:nonzero;stroke:rgb(193,96,105);stroke-width:75.52px;"/>
        <path id="path9" d="M425.463,1661.713L702.415,1657.699L425.463,1661.713Z" style="fill:rgb(193,96,105);fill-rule:nonzero;stroke:rgb(193,96,105);stroke-width:75.52px;"/>
        <path id="path10" d="M280.966,1806.209L345.187,1806.209L280.966,1806.209Z" style="fill:rgb(193,96,105);fill-rule:nonzero;stroke:rgb(193,96,105);stroke-width:75.52px;"/>
        <path id="path11" d="M409.407,1810.223L730.511,1810.223L409.407,1810.223Z" style="fill:rgb(193,96,105);fill-rule:nonzero;stroke:rgb(193,96,105);stroke-width:75.52px;"/>
        <path id="path12" d="M814.801,1810.223L899.091,1806.209L814.801,1810.223Z" style="fill:rgb(193,96,105);fill-rule:nonzero;stroke:rgb(193,96,105);stroke-width:75.52px;"/>
        <path id="path13" d="M434.706,1193.366L2740.126,1191.711C2785.734,1191.678 2823.612,1228.461 2824.917,1274.05L2829.223,1424.51C2830.087,1454.689 2818.695,1483.968 2797.662,1505.628C2776.63,1527.288 2747.698,1539.534 2717.507,1539.557L699.36,1541.095C636.145,1541.144 583.983,1489.394 583.531,1426.18L582.215,1242.544C582.12,1229.306 587.35,1216.57 596.721,1207.218C606.091,1197.867 618.838,1192.664 632.076,1192.786L644.756,1192.903C644.882,1192.905 644.984,1193.009 644.983,1193.135C644.982,1193.261 644.88,1193.364 644.754,1193.366L434.706,1193.366Z" style="fill:none;fill-rule:nonzero;stroke:rgb(193,96,105);stroke-width:75.52px;"/>
        <path id="path14" d="M291.727,1303.708L291.727,1435.562L291.727,1303.708Z" style="fill:none;fill-rule:nonzero;stroke:rgb(193,96,105);stroke-width:52.84px;"/>
        <path id="path15" d="M637.844,1674.548L636.196,1811.346L637.844,1674.548Z" style="fill:none;fill-rule:nonzero;stroke:rgb(193,96,105);stroke-width:52.84px;"/>
    </g>
    <g id="Layer-4" serif:id="Layer 4">
        <g id="text2" transform="matrix(0.87841,0,0,0.704671,11.98209,455.91748)">
            <g transform="matrix(1,0,0,1,164.56641,1801.1564)">
                <text x="0px" y="0px" style="font-family:'Helvetica';font-size:267.231px;fill:rgb(236,239,244);">The Mgaming Group</text>
            </g>
        </g>
    </g>
    <g id="Layer-5" serif:id="Layer 5">
        <g id="text3" transform="matrix(1.494736,0,0,1.296006,287.87186,153.0391)">
            <g transform="matrix(1,0,0,1,275.98047,1013.1015)">
                <text x="0px" y="0px" style="font-family:'CaskaydiaCoveNFP-Regular', 'CaskaydiaCove Nerd Font Propo';font-size:192px;fill:rgb(255,252,255);stroke:rgb(255,254,255);stroke-width:4.16px;">comboom.sucht</text>
            </g>
        </g>
    </g>
    <g id="Layer-6" serif:id="Layer 6" transform="matrix(0.87841,0,0,0.704671,11.98209,455.91748)">
        <g transform="matrix(1.195787,0,0,1.195787,1052.191102,2094.624929)">
            <g transform="matrix(267.231,0,0,267.231,1757.748438,0)">
            </g>
            <text x="0px" y="0px" style="font-family:'Helvetica';font-size:267.231px;fill:rgb(236,239,244);">Live W<tspan x="806.912px 955.534px " y="0px 0px ">al</tspan>lpaper</text>
        </g>
    </g>
</svg>
