<?xml version="1.0" encoding="UTF-8" standalone="no"?>
<!-- Created with Inkscape (http://www.inkscape.org/) -->

<svg
   width="3000"
   height="3000"
   viewBox="0 0 3000 3000"
   version="1.1"
   id="svg1"
   inkscape:version="1.4 (e7c3feb1, 2024-10-09)"
   sodipodi:docname="Logo-blackdragon.svg"
   inkscape:export-filename="Logo_BlackDragon.png"
   inkscape:export-xdpi="96"
   inkscape:export-ydpi="96"
   xml:space="preserve"
   xmlns:inkscape="http://www.inkscape.org/namespaces/inkscape"
   xmlns:sodipodi="http://sodipodi.sourceforge.net/DTD/sodipodi-0.dtd"
   xmlns:xlink="http://www.w3.org/1999/xlink"
   xmlns="http://www.w3.org/2000/svg"
   xmlns:svg="http://www.w3.org/2000/svg"><sodipodi:namedview
     id="namedview1"
     pagecolor="#505050"
     bordercolor="#ffffff"
     borderopacity="1"
     inkscape:showpageshadow="false"
     inkscape:pageopacity="0"
     inkscape:pagecheckerboard="1"
     inkscape:deskcolor="#505050"
     inkscape:document-units="mm"
     labelstyle="below"
     inkscape:clip-to-page="true"
     inkscape:lockguides="false"
     showguides="false"
     inkscape:zoom="0.19093137"
     inkscape:cx="1144.3903"
     inkscape:cy="1432.4519"
     inkscape:window-width="1472"
     inkscape:window-height="1130"
     inkscape:window-x="0"
     inkscape:window-y="39"
     inkscape:window-maximized="0"
     inkscape:current-layer="svg1"
     inkscape:export-bgcolor="#2e344000" /><defs
     id="defs1"><inkscape:path-effect
       effect="bspline"
       id="path-effect10"
       is_visible="true"
       lpeversion="1.3"
       weight="33.333333"
       steps="2"
       helper_size="0"
       apply_no_weight="true"
       apply_with_weight="true"
       only_selected="false"
       uniform="false" /><inkscape:path-effect
       effect="bspline"
       id="path-effect9"
       is_visible="true"
       lpeversion="1.3"
       weight="33.333333"
       steps="2"
       helper_size="0"
       apply_no_weight="true"
       apply_with_weight="true"
       only_selected="false"
       uniform="false" /><inkscape:path-effect
       effect="bspline"
       id="path-effect8"
       is_visible="true"
       lpeversion="1.3"
       weight="33.333333"
       steps="2"
       helper_size="0"
       apply_no_weight="true"
       apply_with_weight="true"
       only_selected="false"
       uniform="false" /><inkscape:path-effect
       effect="bspline"
       id="path-effect7"
       is_visible="true"
       lpeversion="1.3"
       weight="33.333333"
       steps="2"
       helper_size="0"
       apply_no_weight="true"
       apply_with_weight="true"
       only_selected="false"
       uniform="false" /><inkscape:path-effect
       effect="bspline"
       id="path-effect6"
       is_visible="true"
       lpeversion="1.3"
       weight="33.333333"
       steps="2"
       helper_size="0"
       apply_no_weight="true"
       apply_with_weight="true"
       only_selected="false"
       uniform="false" /><linearGradient
       id="linearGradient3"
       inkscape:collect="always"><stop
         style="stop-color:#c16069;stop-opacity:1;"
         offset="0"
         id="stop3" /><stop
         style="stop-color:#d2876d;stop-opacity:1;"
         offset="1"
         id="stop4" /></linearGradient><inkscape:path-effect
       effect="bspline"
       id="path-effect3"
       is_visible="true"
       lpeversion="1.3"
       weight="33.333333"
       steps="2"
       helper_size="0"
       apply_no_weight="true"
       apply_with_weight="true"
       only_selected="false"
       uniform="false" /><inkscape:path-effect
       effect="bspline"
       id="path-effect5"
       is_visible="true"
       lpeversion="1.3"
       weight="33.333333"
       steps="2"
       helper_size="0"
       apply_no_weight="true"
       apply_with_weight="true"
       only_selected="false"
       uniform="false" /><inkscape:path-effect
       effect="bspline"
       id="path-effect4"
       is_visible="true"
       lpeversion="1.3"
       weight="33.333333"
       steps="2"
       helper_size="0"
       apply_no_weight="true"
       apply_with_weight="true"
       only_selected="false"
       uniform="false" /><rect
       x="275.97966"
       y="835.82412"
       width="2495.6447"
       height="441.56746"
       id="rect3" /><rect
       x="102.50673"
       y="94.621599"
       width="2763.7392"
       height="2807.1074"
       id="rect2" /><linearGradient
       inkscape:collect="always"
       xlink:href="#linearGradient3"
       id="linearGradient4"
       x1="1769.9762"
       y1="1253.5824"
       x2="2317.2228"
       y2="1253.5824"
       gradientUnits="userSpaceOnUse" /></defs><g
     inkscape:label="Layer 1"
     inkscape:groupmode="layer"
     id="layer1"
     sodipodi:insensitive="true"><circle
       style="fill:#7bbaa8;fill-opacity:1;stroke-width:1.2544"
       id="path1"
       cx="1500"
       cy="1500"
       r="1500"
       sodipodi:insensitive="true" /></g><g
     inkscape:groupmode="layer"
     id="layer2"
     inkscape:label="Layer 2"
     sodipodi:insensitive="true"
     style="display:inline"><circle
       style="fill:#2e3440;fill-opacity:1;stroke-width:4.21"
       id="path2"
       cx="1500"
       cy="1500"
       r="1400"
       inkscape:label="path2"
       sodipodi:insensitive="true" /></g><g
     inkscape:groupmode="layer"
     id="layer4"
     inkscape:label="Layer 4"><path
       style="fill:url(#linearGradient4);fill-opacity:1;stroke:none;stroke-width:4.08189;stroke-linecap:round;stroke-linejoin:round;stroke-dasharray:none"
       d="m 1772.5492,1155.7594 c -1.5427,-7.542 0.5142,-3.3139 3.0854,0.7429 2.5712,4.0567 5.6565,7.9419 9.599,12.8557 3.9425,4.9138 8.7419,10.8559 15.1984,15.6554 6.4565,4.7996 14.5697,8.4562 24.7401,12.6273 10.1705,4.171 22.3975,8.8561 34.8534,10.7987 12.4559,1.9427 25.14,1.1427 38.3958,-0.4571 13.2559,-1.5999 27.0827,-3.9996 39.8242,-7.1993 12.7416,-3.1996 24.3973,-7.1992 35.6533,-10.056 11.256,-2.8568 22.1117,-4.5709 32.3393,-4.2852 10.2275,0.2857 19.8263,2.5711 31.2538,6.2851 11.4274,3.7139 24.6828,8.8561 36.853,12.57 12.1703,3.7139 23.2545,5.9993 32.4536,7.1992 9.1991,1.1999 16.5124,1.3141 25.0259,1.257 8.5134,-0.057 18.2265,-0.2857 29.7682,-2.2855 11.5417,-1.9998 24.9114,-5.7707 33.6534,-8.6275 8.7419,-2.8569 12.8557,-4.7995 14.7983,-5.3709 1.9427,-0.5714 1.7141,0.2285 0.9142,2.1141 -0.7999,1.8855 -2.1712,4.8566 -6.9136,8.9705 -4.7424,4.1138 -12.8557,9.3703 -20.7406,13.5985 -7.8849,4.2281 -15.5411,7.4277 -25.5973,9.5417 -10.0561,2.1141 -22.5117,3.1425 -28.3396,4.1139 -5.8279,0.9713 -5.028,1.8855 -2.4568,4.3996 2.5712,2.514 6.9134,6.6278 12.57,10.2845 5.6566,3.6568 12.6272,6.8564 22.2834,10.1132 9.6562,3.2568 21.9975,6.5707 33.7106,7.142 11.7131,0.5714 22.7974,-1.5998 36.0533,-4.7995 13.2558,-3.1997 28.6823,-7.4277 39.2526,-16.3983 10.5704,-8.9706 16.2839,-22.6831 20.8549,-36.396 4.571,-13.7129 7.9991,-27.4255 7.4848,-41.5955 -0.5143,-14.17 -4.9708,-28.7967 -6.6278,-35.5959 -1.6569,-6.7993 -0.5142,-5.7708 1.657,-3.371 2.1713,2.3997 5.3708,6.1706 8.4562,12.3415 3.0855,6.1708 6.0565,14.7412 8.3991,22.4547 2.3426,7.7135 4.0567,14.5697 4.171,24.3402 0.1142,9.7705 -1.3713,22.4546 -3.4283,34.282 -2.0569,11.8274 -4.6851,22.7974 -9.2561,32.5107 -4.571,9.7133 -11.0844,18.1694 -17.0838,25.6543 -5.9995,7.485 -11.4845,13.9984 -20.6836,20.2264 -9.1991,6.2279 -22.1117,12.17 -30.0537,15.7696 -7.9421,3.5996 -10.9131,4.8566 -15.5412,6.3993 -4.6282,1.5427 -10.9131,3.371 -16.9696,4.7423 -6.0565,1.3713 -11.8844,2.2855 -14.0556,3.3711 -2.1711,1.0856 -0.6856,2.3426 2.457,4.4567 3.1425,2.114 7.9419,5.0851 13.5985,7.0849 5.6566,1.9998 12.17,3.0282 18.9122,3.6567 6.7422,0.6285 13.7127,0.8571 21.769,-0.5714 8.0564,-1.4284 17.1981,-4.5137 24.1689,-7.3134 6.9707,-2.7998 11.77,-5.3137 13.7127,-5.7136 1.9426,-0.4 1.0284,1.3141 -2.057,5.9422 -3.0855,4.6282 -8.3419,12.17 -13.7699,17.6552 -5.4281,5.4852 -11.0273,8.9133 -17.8266,12.3987 -6.7994,3.4853 -14.7984,7.0277 -22.6262,8.6847 -7.8278,1.6569 -15.4839,1.4284 -22.5117,1.3141 -7.0279,-0.1143 -13.4271,-0.1143 -21.3692,-2.3427 -7.9421,-2.2283 -17.4266,-6.6849 -25.4258,-10.7987 -7.9992,-4.1139 -14.5126,-7.8849 -19.7692,-12.2844 -5.2566,-4.3996 -9.2561,-9.4275 -12.2272,-13.4271 -2.9712,-3.9996 -4.9138,-6.9707 -7.5421,-11.4274 -2.6283,-4.4567 -5.9422,-10.3988 -10.5131,-16.0554 -4.571,-5.6565 -10.3988,-11.0272 -15.9412,-15.9411 -5.5423,-4.9138 -10.7987,-9.3703 -18.1123,-13.5985 -7.3136,-4.2281 -16.6838,-8.2276 -25.7114,-10.9131 -9.0277,-2.6854 -17.7123,-4.0566 -21.4262,-4.1138 -3.7139,-0.057 -2.4569,1.1999 1.1999,4.4567 3.6568,3.2569 9.7132,8.5133 15.3126,15.7127 5.5995,7.1993 10.7416,16.3409 15.1412,24.9687 4.3996,8.6277 8.0562,16.7409 10.5703,25.3686 2.514,8.6277 3.8852,17.7694 3.9995,21.4833 0.1142,3.7138 -1.0284,1.9998 -2.514,-1.8284 -1.4856,-3.8283 -3.3139,-9.7703 -7.6563,-17.4267 -4.3425,-7.6564 -11.1988,-17.0267 -18.7409,-24.5688 -7.5421,-7.542 -15.7696,-13.2556 -23.8831,-17.5409 -8.1135,-4.2853 -16.1124,-7.142 -25.7687,-10.056 -9.6562,-2.914 -20.969,-5.8851 -32.8536,-7.7135 -11.8845,-1.8283 -24.34,-2.514 -34.9675,-3.1425 -10.6275,-0.6285 -19.4263,-1.1998 -30.3967,-3.3139 -10.9704,-2.1141 -24.1115,-5.7708 -35.1961,-9.4847 -11.0846,-3.7139 -20.112,-7.4848 -28.3969,-13.1414 -8.2848,-5.6567 -15.8267,-13.1986 -23.5974,-21.8834 -7.7707,-8.6848 -15.7697,-18.5122 -22.3405,-33.0822 -6.5707,-14.57 -11.7129,-33.8818 -13.2556,-41.4239 z"
       id="path3"
       inkscape:path-effect="#path-effect3"
       inkscape:original-d="m 1768.9496,1143.9893 c 2.0569,4.2281 4.1139,8.4562 6.1708,12.6844 3.0854,3.8853 6.1707,7.7705 9.2561,11.6558 4.7996,5.9423 9.599,11.8844 14.3984,17.8266 8.1136,3.6569 16.2268,7.3135 24.3402,10.9703 12.2275,4.6853 24.4545,9.3704 36.6817,14.0556 12.6846,-0.7999 25.3687,-1.5998 38.053,-2.3998 13.8274,-2.3997 27.6542,-4.7994 41.4812,-7.1992 11.6561,-3.9996 23.3118,-7.9991 34.9676,-11.9987 10.8562,-1.7141 21.7119,-3.4282 32.5679,-5.1423 9.5991,2.2856 19.1979,4.571 28.7968,6.8564 13.256,5.1424 26.5114,10.2846 39.7671,15.4269 11.0848,2.2855 22.169,4.571 33.2535,6.8564 7.3137,0.1143 14.627,0.2286 21.9405,0.3428 9.7134,-0.2285 19.4265,-0.4571 29.1397,-0.6856 13.3702,-3.7711 26.7399,-7.542 40.1099,-11.313 4.1139,-1.9427 8.2277,-3.8853 12.3415,-5.828 -0.2286,0.7999 -0.4571,1.5998 -0.6856,2.3998 -1.3714,2.9711 -2.7426,5.9422 -4.1139,8.9133 -8.1135,5.2566 -16.2268,10.5131 -24.3402,15.7697 -7.6564,3.1997 -15.3126,6.3993 -22.9689,9.5989 -12.456,1.0285 -24.9116,2.0569 -37.3673,3.0854 0.7999,0.9142 1.5998,1.8284 2.3997,2.7426 4.3425,4.1139 8.6848,8.2276 13.0271,12.3415 6.9708,3.1997 13.9414,6.3993 20.912,9.5989 12.3418,3.314 24.6831,6.6279 37.0246,9.9418 11.0847,-2.1712 22.169,-4.3424 33.2535,-6.5136 15.4272,-4.2282 30.8537,-8.4562 46.2806,-12.6843 5.7138,-13.7131 11.4274,-27.4256 17.141,-41.1384 3.4283,-13.713 6.8564,-27.4256 10.2846,-41.1383 -4.4567,-14.6273 -8.9133,-29.254 -13.37,-43.881 1.1428,1.0285 2.2855,2.057 3.4282,3.0854 3.1998,3.7711 6.3993,7.542 9.599,11.3131 2.9712,8.5706 5.9422,17.141 8.9133,25.7114 1.7141,6.8566 3.4282,13.7128 5.1423,20.5692 -1.4856,12.6846 -2.9711,25.3687 -4.4567,38.053 -2.6283,10.9705 -5.2565,21.9405 -7.8848,32.9107 -6.5137,8.4564 -13.0272,16.9124 -19.5407,25.3687 -5.4853,6.5137 -10.9703,13.0271 -16.4554,19.5407 -12.9131,5.9423 -25.8257,11.8844 -38.7386,17.8266 -2.9712,1.257 -5.9422,2.514 -8.9133,3.771 -6.2852,1.8284 -12.5701,3.6568 -18.8551,5.4851 -5.828,0.9142 -11.6559,1.8284 -17.4838,2.7426 1.4856,1.257 2.9711,2.514 4.4567,3.771 4.7995,2.9712 9.5989,5.9422 14.3984,8.9133 6.5137,1.0285 13.0271,2.0569 19.5407,3.0854 6.9708,0.2286 13.9413,0.4571 20.912,0.6856 9.142,-3.0854 18.2837,-6.1707 27.4256,-9.2561 4.7996,-2.5141 9.5989,-5.028 14.3984,-7.542 -0.9142,1.7141 -1.8284,3.4282 -2.7426,5.1423 -5.2566,7.5422 -10.5131,15.084 -15.7697,22.6261 -5.5995,3.4282 -11.1987,6.8564 -16.7981,10.2846 -7.9993,3.5425 -15.9983,7.0849 -23.9974,10.6274 -7.6565,-0.2286 -15.3126,-0.4571 -22.9689,-0.6857 -6.3994,0 -12.7986,0 -19.1979,0 -9.4849,-4.4567 -18.9694,-8.9133 -28.4541,-13.3699 -6.5137,-3.7711 -13.0271,-7.5421 -19.5407,-11.3131 -3.9996,-5.0281 -7.9991,-10.056 -11.9987,-15.0841 -1.9427,-2.9711 -3.8853,-5.9422 -5.8279,-8.9133 -3.314,-5.9423 -6.6279,-11.8844 -9.9418,-17.8266 -5.828,-5.3709 -11.6558,-10.7417 -17.4838,-16.1125 -5.2567,-4.4568 -10.5131,-8.9133 -15.7697,-13.37 -9.3706,-3.9996 -18.7408,-7.9991 -28.1112,-11.9987 -8.6849,-1.3713 -17.3695,-2.7425 -26.0543,-4.1138 1.257,1.257 2.514,2.514 3.771,3.771 6.0566,5.2567 12.113,10.5131 18.1695,15.7697 5.1424,9.1421 10.2846,18.2837 15.4268,27.4256 3.6569,8.1136 7.3135,16.2268 10.9703,24.3402 1.3713,9.142 2.7425,18.2837 4.1138,27.4256 -1.1427,-1.7142 -2.2854,-3.4282 -3.4282,-5.1423 -1.8284,-5.9424 -3.6567,-11.8844 -5.4851,-17.8267 -6.8565,-9.3705 -13.7128,-18.7408 -20.5692,-28.1112 -8.2278,-5.7137 -16.4553,-11.4273 -24.683,-17.141 -7.9993,-2.8568 -15.9982,-5.7136 -23.9974,-8.5704 -11.3133,-2.9712 -22.6261,-5.9423 -33.9391,-8.9134 -12.4561,-0.6856 -24.9116,-1.3712 -37.3674,-2.0569 -8.7992,-0.5714 -17.598,-1.1427 -26.3971,-1.7141 -13.1417,-3.6568 -26.2828,-7.3135 -39.4243,-10.9702 -9.0277,-3.7711 -18.0551,-7.542 -27.0827,-11.3131 -7.5422,-7.5421 -15.0841,-15.084 -22.6261,-22.6261 -7.9993,-9.8276 -15.9983,-19.655 -23.9974,-29.4824 -5.1424,-19.3126 -10.2846,-38.6244 -15.4269,-57.9366 z"
       sodipodi:insensitive="true" /><path
       style="fill:#4c566b;fill-opacity:1;stroke:none;stroke-width:4.08189;stroke-linecap:round;stroke-linejoin:round;stroke-dasharray:none"
       d="m 1308.5037,584.93006 c 6.7639,-0.62085 23.1671,-0.55549 36.9238,0.4248 13.7566,0.9803 24.8662,2.87546 37.3812,5.65294 12.5149,2.77747 26.4346,6.43711 40.1913,11.73065 13.7566,5.29355 27.3494,12.22067 40.812,19.99761 13.4626,7.77695 26.7941,16.40322 41.0409,28.1013 14.2468,11.69809 29.4081,26.46727 40.7794,38.81883 11.3712,12.35156 18.9519,22.28485 26.1406,32.31644 7.1888,10.03158 13.9852,20.16085 18.0697,26.04252 4.0845,5.88166 5.4568,7.5154 7.3194,9.01851 1.8625,1.50311 4.2151,2.87546 6.6005,3.88843 2.3854,1.01297 4.8033,1.66646 7.2213,1.86251 2.4181,0.19606 4.8361,-0.0653 7.5155,-0.71888 2.6795,-0.65353 5.6202,-1.69912 8.2996,-3.3983 2.6795,-1.69917 5.0975,-4.05179 6.9927,-6.46981 1.8952,-2.41803 3.2675,-4.90134 4.4112,-7.41742 1.1437,-2.51608 2.0586,-5.06473 2.7774,-8.3977 0.7189,-3.33297 1.2417,-7.45004 1.5031,-12.28612 0.2614,-4.83608 0.2614,-10.39086 -0.033,-17.87372 -0.2941,-7.48286 -0.8822,-16.89331 -0.8169,-21.10849 0.065,-4.21518 0.7843,-3.23491 3.5945,1.4378 2.8101,4.67271 7.7114,13.03757 11.6652,21.53338 3.9538,8.4958 6.9599,17.12205 9.8354,27.18632 2.8755,10.06428 5.6202,21.56594 7.8749,34.83248 2.2546,13.26654 4.0191,28.29712 5.3588,44.24309 1.3398,15.94598 2.2547,32.80637 3.1369,44.341 0.8823,11.53463 1.7318,17.74292 2.6794,23.13447 0.9477,5.39155 1.9933,9.96608 3.7578,15.32497 1.7645,5.3589 4.2478,11.50184 6.6659,16.59932 2.418,5.09748 4.7706,9.1492 6.9925,12.93963 2.222,3.79042 4.3132,7.31933 6.5679,10.75034 2.2547,3.43102 4.6726,6.76386 7.5154,10.4236 2.8429,3.65975 6.1104,7.6461 8.9532,10.68496 2.8428,3.03886 5.2608,5.1301 7.4828,7.02533 2.222,1.89523 4.2478,3.59431 6.5351,4.99938 2.2874,1.40508 4.836,2.51601 6.6006,3.10418 1.7645,0.58818 2.7447,0.65353 3.823,0.71888 1.0783,0.0653 2.2546,0.1307 3.5943,-0.16338 1.3398,-0.29409 2.8429,-0.94762 4.2153,-2.41804 1.3723,-1.47042 2.614,-3.75769 3.5943,-7.28673 0.9803,-3.52904 1.6991,-8.29961 2.1239,-15.58642 0.4248,-7.28681 0.5555,-17.08936 0.1307,-28.06856 -0.4248,-10.9792 -1.405,-23.13437 -1.6991,-28.55854 -0.2941,-5.42418 0.098,-4.11717 3.0716,10.55455 2.9735,14.67173 8.5283,42.70704 12.1227,58.58752 3.5943,15.88049 5.2281,19.60547 6.6658,21.99082 1.4378,2.38534 2.6794,3.43093 4.0845,4.34588 1.4051,0.91494 2.9735,1.69914 4.1825,2.18928 1.209,0.49013 2.0586,0.6862 2.9735,0.81689 0.9149,0.1307 1.8952,0.19605 3.6597,0.19605 1.7645,0 4.3132,-0.0653 6.3391,-1.07831 2.0259,-1.01297 3.529,-2.97349 9.8682,-15.71729 6.3392,-12.7438 17.5142,-36.26992 23.069,-47.44507 5.5549,-11.17514 5.4896,-9.99882 3.3002,2.38556 -2.1893,12.38438 -6.5024,35.97585 -8.5936,48.29465 -2.0913,12.3188 -1.9606,13.36441 -1.5685,14.63878 0.3921,1.27437 1.0456,2.77743 2.2546,4.57464 1.2091,1.7972 2.9735,3.88843 5.9797,6.86193 3.0063,2.9735 7.254,6.8292 11.894,10.8811 4.6401,4.0518 9.6721,8.2996 13.3318,11.9267 3.6597,3.627 5.947,6.6331 7.6788,9.2472 1.7319,2.6141 2.9082,4.836 3.9211,7.156 1.013,2.32 1.8625,4.7379 2.222,7.254 0.3594,2.5161 0.2287,5.1301 -0.9803,8.9532 -1.2091,3.8231 -3.4964,8.8551 -5.9471,12.4822 -2.4507,3.627 -5.0647,5.8489 -7.0906,7.7114 -2.0259,1.8626 -3.4636,3.3656 -6.6332,4.7053 -3.1696,1.3397 -8.0709,2.5161 -11.8614,3.0716 -3.7904,0.5555 -6.4697,0.4901 -8.0055,0.8823 -1.5358,0.3921 -1.9279,1.2416 -3.1042,3.4963 -1.1763,2.2546 -3.1369,5.9143 -5.9143,9.8028 -2.7775,3.8884 -6.3718,8.0055 -9.8355,11.5672 -3.4637,3.5617 -6.7965,6.5678 -9.8354,8.9531 -3.0389,2.3854 -5.7836,4.1498 -9.6721,6.1104 -3.8884,1.9606 -8.9204,4.1171 -11.1423,4.6726 -2.222,0.5555 -1.6339,-0.4901 -0.2615,-1.8625 1.3724,-1.3724 3.529,-3.0715 5.6529,-5.9797 2.124,-2.9082 4.2152,-7.0253 5.8817,-10.2602 1.6665,-3.2349 2.9081,-5.5875 4.1498,-10.1622 1.2417,-4.5747 2.4834,-11.3711 2.5488,-14.2466 0.065,-2.8755 -1.0457,-1.8299 -3.235,0.033 -2.1893,1.8625 -5.4568,4.5419 -7.0906,5.0973 -1.6338,0.5555 -1.6338,-1.0129 -1.6011,-3.3002 0.033,-2.2873 0.098,-5.2935 -0.3595,-6.3064 -0.4575,-1.0129 -1.4377,-0.033 -3.627,1.8952 -2.1894,1.9279 -5.5876,4.8033 -7.4501,5.3915 -1.8625,0.5881 -2.1893,-1.111 -2.418,-3.5291 -0.2287,-2.418 -0.3594,-5.5548 -0.7515,-6.3716 -0.3922,-0.8169 -1.0457,0.6861 -2.1893,2.9408 -1.1437,2.2546 -2.7775,5.2608 -5.6204,8.3977 -2.8428,3.1369 -6.8945,6.4044 -10.4889,8.7897 -3.5943,2.3854 -6.7311,3.8884 -9.9661,5.1628 -3.2349,1.2744 -6.5678,2.32 -10.0642,2.9408 -3.4963,0.6209 -7.1559,0.8169 -8.3649,0.2288 -1.209,-0.5882 0.033,-1.9606 1.9932,-4.248 1.9606,-2.2873 4.6399,-5.4894 7.1233,-9.4106 2.4834,-3.9211 4.7707,-8.561 6.2084,-13.2337 1.4378,-4.6727 2.0259,-9.3779 1.8299,-13.1684 -0.1961,-3.7904 -1.1764,-6.6658 -2.8102,-9.5413 -1.6338,-2.8755 -3.921,-5.7509 -7.2213,-8.6591 -3.3003,-2.9081 -7.6135,-5.8489 -11.796,-8.2669 -4.1825,-2.418 -8.2343,-4.3132 -13.6585,-6.0124 -5.4243,-1.6991 -12.2207,-3.2022 -20.3244,-4.7707 -8.1037,-1.5684 -17.5142,-3.2022 -26.6635,-4.9667 -9.1493,-1.7645 -18.037,-3.6597 -24.9643,-4.8034 -6.9273,-1.1436 -11.8939,-1.5357 -17.1875,-1.307 -5.2935,0.2288 -10.9137,1.0783 -16.2072,2.5814 -5.2935,1.5031 -10.2601,3.6597 -14.3773,6.3065 -4.1172,2.6468 -7.3847,5.7836 -8.5937,7.5154 -1.209,1.7319 -0.3595,2.0586 2.8428,3.4964 3.2023,1.4377 8.7571,3.9864 15.1943,8.0383 6.4372,4.0518 13.7564,9.6066 19.3767,15.1615 5.6203,5.555 9.5413,11.1098 13.8546,17.7757 4.3132,6.6659 9.0185,14.4426 13.0703,23.7554 4.0518,9.3127 7.45,20.1608 10.5216,29.3428 3.0716,9.182 5.8163,16.6973 8.3324,22.3502 2.516,5.653 4.8033,9.4433 7.0253,12.7436 2.2219,3.3003 4.3785,6.1104 5.8816,6.6985 1.5031,0.5882 2.3526,-1.0456 3.5943,-3.6923 1.2417,-2.6468 2.8755,-6.3065 5.3915,-9.4761 2.5161,-3.1695 5.9144,-5.8489 9.4434,-7.8095 3.529,-1.9605 7.1886,-3.2022 10.1948,-3.725 3.0062,-0.5228 5.3588,-0.3268 5.9796,0.3595 0.6209,0.6862 -0.4901,1.8625 -2.1565,3.5617 -1.6665,1.6991 -3.8884,3.921 -5.6856,7.0252 -1.7972,3.1043 -3.1696,7.0907 -4.2806,11.3059 -1.111,4.2152 -1.9605,8.659 -2.1239,11.7959 -0.1634,3.1369 0.3595,4.9668 1.2744,7.7769 0.915,2.8102 2.222,6.6005 3.4963,8.2343 1.2744,1.6338 2.516,1.111 4.6726,-0.1307 2.1567,-1.2418 5.2282,-3.2023 6.8947,-3.627 1.6664,-0.4248 1.9278,0.6862 2.2872,3.2349 0.3595,2.5488 0.8169,6.5351 1.7319,8.1362 0.9149,1.6012 2.2873,0.8169 4.4766,-0.4248 2.1893,-1.2417 5.1954,-2.9408 6.8946,-3.1041 1.6991,-0.1634 2.0912,1.209 2.614,3.0062 0.5228,1.7972 1.1764,4.0191 2.222,4.6072 1.0456,0.5882 2.4833,-0.4574 4.2805,-1.9932 1.7972,-1.5358 3.9538,-3.5617 6.0124,-6.2738 2.0586,-2.7121 4.0191,-6.1103 5.8816,-9.9008 1.8626,-3.7904 3.627,-7.9728 4.7707,-12.6455 1.1436,-4.6727 1.6665,-9.8354 2.1239,-11.8613 0.4575,-2.0259 0.8496,-0.9149 1.7319,1.8299 0.8822,2.7448 2.2546,7.1233 2.7774,11.0444 0.5228,3.9211 0.196,7.3847 -0.098,10.3583 -0.2941,2.9735 -0.5555,5.4568 -1.7972,9.77 -1.2417,4.3133 -3.4636,10.4562 -4.9014,15.0636 -1.4377,4.6073 -2.0913,7.6788 -2.5487,11.9267 -0.4575,4.2479 -0.7189,9.672 -1.5685,14.6715 -0.8496,4.9994 -2.2873,9.5739 -4.0191,13.7564 -1.7318,4.1826 -3.7577,7.9729 -6.3391,11.8287 -2.5814,3.8558 -5.7183,7.7768 -10.1296,12.4495 -4.4113,4.6727 -10.0967,10.0968 -12.3513,11.5672 -2.2546,1.4703 -1.0783,-1.013 0.4901,-4.3786 1.5685,-3.3657 3.529,-7.6135 5.2608,-12.3842 1.7318,-4.7707 3.2349,-10.0641 4.2152,-13.9198 0.9803,-3.8558 1.4377,-6.2738 1.3724,-8.6265 -0.065,-2.3527 -0.6535,-4.6399 -2.026,-6.045 -1.3724,-1.4051 -3.5289,-1.9279 -5.4568,-2.516 -1.9279,-0.5882 -3.627,-1.2417 -7.0907,-3.1042 -3.4637,-1.8626 -8.6917,-4.934 -13.103,-7.9076 -4.4113,-2.9735 -8.0056,-5.8489 -9.8681,-6.5678 -1.8625,-0.7189 -1.9932,0.7189 -2.6794,3.431 -0.6862,2.7121 -1.9279,6.6985 -3.6597,10.2929 -1.7319,3.5943 -3.9538,6.7965 -6.3718,9.868 -2.418,3.0716 -5.0321,6.0124 -7.9076,8.169 -2.8755,2.1566 -6.0123,3.529 -8.3649,4.738 -2.3527,1.209 -3.9211,2.2546 -7.973,2.6794 -4.0519,0.4248 -10.5869,0.2288 -13.2663,-0.4575 -2.6794,-0.6862 -1.5031,-1.8625 0.4901,-4.3132 1.9933,-2.4507 4.8034,-6.1757 7.4502,-11.1098 2.6467,-4.9341 5.13,-11.077 6.7965,-16.5666 1.6665,-5.4896 2.516,-10.3256 2.418,-15.4558 -0.098,-5.1301 -1.1437,-10.5542 -3.1043,-15.815 -1.9605,-5.2609 -4.8359,-10.3582 -8.1362,-14.4427 -3.3003,-4.0845 -7.0253,-7.156 -13.0378,-11.2732 -6.0124,-4.1172 -14.3119,-9.2799 -23.2978,-14.2467 -8.986,-4.9668 -18.6578,-9.7373 -29.7677,-15.5537 -11.1099,-5.8163 -23.6572,-12.6781 -32.6758,-18.233 -9.0186,-5.555 -14.508,-9.8027 -19.2787,-13.8546 -4.7707,-4.0518 -8.8225,-7.9075 -12.0247,-12.4822 -3.2023,-4.5747 -5.5549,-9.868 -7.7768,-15.8478 -2.222,-5.9797 -4.3132,-12.6455 -5.3916,-19.3767 -1.0783,-6.7313 -1.1436,-13.5278 -1.0129,-20.7166 0.1307,-7.1887 0.4574,-14.7693 1.3397,-20.8798 0.8823,-6.1104 2.32,-10.7503 2.9735,-13.5604 0.6535,-2.8101 0.5228,-3.7904 -0.7189,-3.7904 -1.2417,0 -3.5943,0.9803 -5.5876,2.5161 -1.9932,1.5358 -3.6269,3.627 -5.7836,6.7966 -2.1566,3.1696 -4.836,7.4173 -7.1887,12.4168 -2.3527,4.9995 -4.3785,10.7503 -6.5025,16.5666 -2.1239,5.8164 -4.3458,11.6979 -6.4044,17.9064 -2.0586,6.2085 -3.9538,12.7435 -5.5549,20.2263 -1.6012,7.4829 -2.9082,15.9131 -3.4636,23.69 -0.5555,7.777 -0.3595,14.9001 0.196,21.37 0.5555,6.4699 1.4705,12.2861 2.6795,18.6253 1.209,6.3391 2.712,13.2009 5.1301,20.4877 2.418,7.2868 5.7509,14.9981 8.1689,20.259 2.418,5.2608 3.9211,8.0709 5.3915,10.7177 1.4705,2.6467 2.9082,5.13 2.7121,6.0123 -0.1961,0.8822 -2.0259,0.1634 -5.5549,-1.6012 -3.5291,-1.7645 -8.7571,-4.5746 -14.1487,-8.6264 -5.3915,-4.0519 -10.9463,-9.3452 -15.9784,-15.2923 -5.0322,-5.9471 -9.5413,-12.5475 -13.4625,-19.3768 -3.9211,-6.8293 -7.254,-13.8871 -10.1948,-22.7751 -2.9409,-8.8879 -5.4895,-19.6054 -7.352,-30.4212 -1.8626,-10.8158 -3.0389,-21.7293 -2.1566,-32.9046 0.8823,-11.1752 3.823,-22.6115 8.5284,-35.3552 4.7054,-12.7437 11.1751,-26.7941 20.4551,-39.7992 9.2801,-13.00507 21.3699,-24.96417 26.5327,-31.13991 5.1627,-6.17575 3.3983,-6.56784 -0.065,-7.02531 -3.4637,-0.45746 -8.6264,-0.98027 -14.4428,-0.49012 -5.8163,0.49015 -12.286,1.99321 -18.3311,4.11718 -6.0451,2.12397 -11.6652,4.86867 -18.8539,9.27996 -7.1888,4.41129 -15.9458,10.48889 -24.2128,18.0044 -8.2671,7.5155 -16.0438,16.4685 -19.8015,19.3439 -3.7578,2.8755 -3.4963,-0.3266 -2.3853,-6.1757 1.111,-5.8491 3.0715,-14.34462 5.4241,-22.48097 2.3527,-8.13635 5.0974,-15.91307 8.5285,-22.80773 3.431,-6.89466 7.548,-12.90686 12.2534,-18.69055 4.7054,-5.78369 9.9988,-11.33849 15.6191,-15.29228 5.6203,-3.95379 11.5671,-6.30637 13.5277,-8.10357 1.9605,-1.7972 -0.065,-3.03886 -4.6074,-5.16281 -4.542,-2.12395 -11.5998,-5.13006 -19.7362,-7.74416 -8.1364,-2.6141 -17.3508,-4.83602 -27.415,-6.82926 -10.0643,-1.99324 -20.9778,-3.75769 -33.1333,-4.70529 -12.1556,-0.9476 -25.5524,-1.0783 -38.6555,-0.98027 -13.1032,0.098 -25.9119,0.42478 -35.0285,1.01296 -9.1166,0.58817 -14.5407,1.43774 -15.6516,0.84955 -1.1109,-0.58819 2.0912,-2.61402 8.1037,-5.88165 6.0124,-3.26764 14.8347,-7.77682 24.2128,-11.46922 9.378,-3.6924 19.3113,-6.56784 30.6172,-8.92051 11.306,-2.35268 23.984,-4.18249 34.4403,-4.9667 10.4564,-0.78422 18.6905,-0.52282 31.4016,0.39212 12.7111,0.91495 29.8982,2.48335 47.0205,5.91437 17.1223,3.43101 34.1788,8.72441 41.9556,10.22747 7.7768,1.50305 6.2738,-0.78419 1.0455,-7.02539 -5.2282,-6.2412 -14.1812,-16.43585 -24.6703,-25.09501 -10.489,-8.65915 -22.5135,-15.78236 -39.8973,-23.39591 -17.3837,-7.61354 -40.1256,-15.71698 -58.6857,-20.52035 -18.56,-4.80337 -32.937,-6.30642 -38.2958,-7.45009 -5.3588,-1.14366 -1.6992,-1.92786 7.7116,-3.23491 9.4108,-1.30706 24.572,-3.13686 38.4921,-2.74472 13.92,0.39213 26.598,3.00615 40.7468,6.43716 14.1488,3.43101 29.7675,7.67877 44.0143,13.49515 14.2468,5.81637 27.1208,13.20094 37.3157,19.31138 10.195,6.11043 17.7103,10.94636 20.357,11.99196 2.6467,1.04559 0.4248,-1.69911 -6.9601,-9.63947 -7.3848,-7.94035 -19.9321,-21.0758 -33.7868,-33.13329 -13.8547,-12.05749 -29.016,-23.03635 -45.7135,-33.49272 -16.6976,-10.45638 -34.9303,-20.38962 -52.0853,-28.624 -17.155,-8.23438 -33.2311,-14.76937 -47.772,-19.73614 -14.5409,-4.96677 -27.5456,-8.36499 -39.7338,-11.27316 -12.1882,-2.90818 -23.5592,-5.32615 -26.6307,-6.79657 -3.0714,-1.47042 2.1566,-1.99322 13.5606,-2.64674 11.4041,-0.65353 28.9833,-1.43773 44.8639,-0.45743 15.8806,0.9803 30.0616,3.72501 50.4516,9.01857 20.39,5.29357 46.9876,13.13562 70.7758,23.49398 23.7882,10.35837 44.7657,23.2324 60.3195,33.49268 15.5538,10.26029 25.6831,17.90628 29.9309,19.89948 4.2479,1.99319 2.6141,-1.66644 -1.6338,-10.06425 -4.2479,-8.39781 -11.1097,-21.53325 -19.6055,-34.27694 -8.4958,-12.74369 -18.6252,-25.09494 -30.65,-37.90397 -12.0248,-12.80903 -25.9445,-26.07519 -40.5834,-38.19803 -14.6389,-12.12283 -29.9963,-23.10173 -47.1186,-33.98288 -17.1223,-10.88114 -36.0086,-21.66397 -50.0266,-28.98339 -14.018,-7.31941 -23.1671,-11.1751 -29.1794,-13.7565 -6.0124,-2.58139 -8.8878,-3.88839 -2.1239,-4.50924 z"
       id="path7"
       inkscape:path-effect="#path-effect8"
       inkscape:original-d="m 1298.8643,584.24386 c 16.4033,0.0654 32.8065,0.13071 49.2098,0.19606 11.11,1.89524 22.2196,3.7904 33.3293,5.68559 13.9202,3.65977 27.8399,7.31939 41.7598,10.97908 13.5934,6.92742 27.1862,13.85456 40.7794,20.78183 13.332,8.62659 26.6635,17.25284 39.9952,25.87926 15.1619,14.76977 30.3232,29.53895 45.4848,44.30843 7.5809,9.93365 15.1616,19.8669 22.7423,29.80036 6.7968,10.12971 13.5932,20.25901 20.3898,30.38852 1.3724,1.63382 2.7447,3.26758 4.1171,4.90137 2.3527,1.37242 4.7053,2.74477 7.058,4.11716 2.4181,0.65353 4.836,1.30703 7.254,1.96055 2.4181,-0.26141 4.8361,-0.52282 7.2541,-0.78422 2.9409,-1.04565 5.8816,-2.09126 8.8224,-3.13688 2.4181,-2.35271 4.8361,-4.70532 7.2541,-7.05798 1.3724,-2.48341 2.7447,-4.96673 4.1171,-7.45009 0.915,-2.54877 1.8299,-5.09743 2.7448,-7.64615 0.5228,-4.11723 1.0456,-8.2343 1.5684,-12.35146 0,-5.555 0,-11.10978 0,-16.66467 -0.5881,-9.41083 -1.1763,-18.82128 -1.7645,-28.23192 0.7189,0.98029 1.4378,1.96055 2.1567,2.94082 4.9014,8.36518 9.8027,16.73003 14.7041,25.09504 3.0062,8.62659 6.0123,17.25284 9.0185,25.87926 2.7448,11.50212 5.4895,23.00379 8.2343,34.50568 1.7645,15.03118 3.529,30.06176 5.2935,45.09265 0.9149,16.86106 1.8298,33.72145 2.7448,50.58218 0.8496,6.20853 1.6991,12.41682 2.5487,18.62523 1.0456,4.5747 2.0912,9.14923 3.1369,13.72384 2.4834,6.14318 4.9667,12.28612 7.4501,18.42917 2.3527,4.05189 4.7053,8.10361 7.0579,12.15541 2.0913,3.52906 4.1825,7.05798 6.2738,10.58697 2.4181,3.333 4.836,6.66587 7.254,9.99881 3.2677,3.98653 6.5352,7.9729 9.8028,11.95935 2.418,2.0913 4.836,4.18251 7.254,6.27376 2.026,1.69918 4.0518,3.39829 6.0777,5.09743 2.5488,1.111 5.0974,2.22196 7.6462,3.33294 0.9803,0.0654 1.9605,0.1307 2.9408,0.19605 1.1763,0.0653 2.3526,0.1307 3.529,0.19606 1.5031,-0.65353 3.0062,-1.30704 4.5092,-1.96055 1.2417,-2.28736 2.4834,-4.57462 3.7251,-6.86193 0.7189,-4.77077 1.4377,-9.54134 2.1566,-14.31201 0.1307,-9.80295 0.2614,-19.6055 0.3921,-29.40825 -0.9803,-12.15565 -1.9605,-24.31082 -2.9408,-36.46623 0.3921,1.30706 0.7842,2.61407 1.1763,3.9211 5.555,28.03642 11.1098,56.07173 16.6647,84.10759 1.6338,3.72512 3.2676,7.45009 4.9014,11.17513 1.2417,1.04565 2.4833,2.09126 3.725,3.13688 1.5685,0.78424 3.1369,1.56844 4.7053,2.35266 0.8496,0.19606 1.6992,0.39211 2.5487,0.58817 0.9803,0.0654 1.9606,0.1307 2.9409,0.19605 2.5487,-0.0653 5.0974,-0.1307 7.6461,-0.19605 1.5031,-1.96059 3.0062,-3.9211 4.5093,-5.88165 11.1753,-23.52707 22.3502,-47.0532 33.5254,-70.5798 -0.065,1.17636 -0.1307,2.35266 -0.1961,3.52899 -4.3133,23.59243 -8.6264,47.1839 -12.9396,70.77585 0.1307,1.04565 0.2614,2.09126 0.3921,3.13688 0.6535,1.50312 1.307,3.00618 1.9605,4.50927 1.7646,2.09129 3.529,4.18255 5.2935,6.27375 4.248,3.8558 8.4957,7.7115 12.7436,11.5673 5.0322,4.2479 10.0642,8.4957 15.0962,12.7435 2.2874,3.0063 4.5747,6.0124 6.862,9.0186 1.1763,2.222 2.3526,4.4439 3.529,6.6658 0.8495,2.4181 1.6991,4.836 2.5487,7.2541 -0.1307,2.6141 -0.2614,5.2281 -0.3921,7.8422 -2.2874,5.0321 -4.5747,10.0641 -6.862,15.0962 -2.6141,2.222 -5.2281,4.4439 -7.8422,6.6659 -1.4377,1.5031 -2.8754,3.0061 -4.3132,4.5092 -4.9014,1.1764 -9.8027,2.3527 -14.7041,3.529 -2.6795,-0.065 -5.3588,-0.1307 -8.0383,-0.196 -0.3921,0.8496 -0.7842,1.6991 -1.1763,2.5487 -1.9606,3.6597 -3.9211,7.3194 -5.8816,10.9791 -3.5944,4.1172 -7.1887,8.2343 -10.7831,12.3514 -3.333,3.0063 -6.6658,6.0124 -9.9988,9.0186 -2.7448,1.7645 -5.4895,3.5289 -8.2343,5.2934 -5.0321,2.1567 -10.0641,4.3132 -15.0962,6.4699 0.5882,-1.0457 1.1763,-2.0913 1.7645,-3.1369 2.1566,-1.6992 4.3132,-3.3983 6.4698,-5.0975 2.0913,-4.1172 4.1825,-8.2343 6.2738,-12.3514 1.2417,-2.3527 2.4833,-4.7053 3.725,-7.058 1.2417,-6.7967 2.4834,-13.5931 3.7251,-20.3897 -1.111,1.0456 -2.222,2.0912 -3.333,3.1369 -3.2676,2.6794 -6.5351,5.3588 -9.8027,8.0382 0,-1.5685 0,-3.1369 0,-4.7053 0.065,-3.0062 0.1307,-6.0124 0.196,-9.0185 -0.9803,0.9803 -1.9605,1.9605 -2.9408,2.9408 -3.3984,2.8755 -6.7966,5.7509 -10.1949,8.6264 -0.3267,-1.6992 -0.6535,-3.3983 -0.9802,-5.0974 -0.1307,-3.137 -0.2614,-6.2738 -0.3921,-9.4107 -0.6536,1.5032 -1.3071,3.0062 -1.9606,4.5093 -1.6338,3.0062 -3.2676,6.0124 -4.9014,9.0185 -4.0519,3.2677 -8.1036,6.5352 -12.1554,9.8028 -3.1369,1.5031 -6.2737,3.0062 -9.4106,4.5092 -3.333,1.0457 -6.6659,2.0913 -9.9988,3.1369 -3.6598,0.1961 -7.3194,0.3921 -10.9791,0.5882 1.2417,-1.3724 2.4834,-2.7448 3.725,-4.1172 2.6795,-3.2023 5.3589,-6.4044 8.0383,-9.6067 2.2874,-4.64 4.5746,-9.2799 6.8619,-13.9199 0.5882,-4.7054 1.1764,-9.4106 1.7645,-14.1159 -0.9803,-2.8756 -1.9605,-5.751 -2.9408,-8.6264 -2.2874,-2.8756 -4.5746,-5.751 -6.8619,-8.6265 -4.3133,-2.9408 -8.6265,-5.8816 -12.9397,-8.8224 -4.0518,-1.8953 -8.1036,-3.7904 -12.1554,-5.6856 -6.7967,-1.5031 -13.5931,-3.0062 -20.3897,-4.5093 -9.4108,-1.6338 -18.8213,-3.2676 -28.2319,-4.9014 -8.888,-1.8952 -17.7757,-3.7904 -26.6635,-5.6856 -4.9668,-0.3921 -9.9334,-0.7842 -14.9002,-1.1763 -5.6203,0.8496 -11.2405,1.6992 -16.8607,2.5487 -4.9668,2.1567 -9.9334,4.3132 -14.9002,6.4698 -3.2676,3.137 -6.5351,6.2738 -9.8027,9.4107 0.8496,0.3267 1.6991,0.6535 2.5487,0.9803 5.555,2.5487 11.1098,5.0974 16.6647,7.6461 7.3195,5.555 14.6387,11.1098 21.9581,16.6647 3.9212,5.555 7.8422,11.1098 11.7633,16.6646 4.7054,7.777 9.4107,15.5537 14.116,23.3306 3.3983,10.8486 6.7966,21.6967 10.1948,32.5451 2.7449,7.5156 5.4896,15.0309 8.2344,22.5463 2.2873,3.7905 4.5746,7.5808 6.8619,11.3712 2.1566,2.8102 4.3132,5.6203 6.4698,8.4304 0.8496,-1.6338 1.6991,-3.2676 2.5487,-4.9014 1.6338,-3.6597 3.2676,-7.3194 4.9014,-10.9791 3.3983,-2.6794 6.7966,-5.3588 10.1948,-8.0382 3.6598,-1.2417 7.3194,-2.4834 10.9791,-3.7251 2.3527,0.1961 4.7053,0.3921 7.058,0.5882 -1.111,1.1764 -2.222,2.3527 -3.3329,3.529 -2.222,2.222 -4.4439,4.4439 -6.6659,6.6659 -1.3724,3.9865 -2.7448,7.9729 -4.1172,11.9593 -0.8495,4.444 -1.6991,8.8878 -2.5487,13.3318 0.5228,1.8298 1.0457,3.6597 1.5685,5.4895 1.307,3.7905 2.614,7.5808 3.9211,11.3712 1.2417,-0.5228 2.4833,-1.0456 3.725,-1.5685 3.0716,-1.9605 6.1431,-3.9211 9.2146,-5.8816 0.2614,1.111 0.5228,2.222 0.7842,3.3329 0.4575,3.9866 0.9149,7.9729 1.3724,11.9594 1.3724,-0.7843 2.7448,-1.5685 4.1172,-2.3527 3.0062,-1.6992 6.0123,-3.3983 9.0185,-5.0974 0.3921,1.3724 0.7842,2.7448 1.1763,4.1172 0.6535,2.222 1.307,4.4439 1.9606,6.6658 1.4377,-1.0456 2.8754,-2.0912 4.3132,-3.1369 2.1566,-2.0259 4.3132,-4.0518 6.4698,-6.0777 1.9606,-3.3983 3.9211,-6.7965 5.8816,-10.1948 1.7646,-4.1826 3.529,-8.365 5.2935,-12.5475 0.5228,-5.1629 1.0456,-10.3256 1.5685,-15.4884 0.3921,1.111 0.7842,2.222 1.1763,3.3329 1.3724,4.3787 2.7448,8.7572 4.1171,13.1357 -0.3267,3.4637 -0.6535,6.9273 -0.9802,10.3909 -0.2614,2.4835 -0.5228,4.9668 -0.7842,7.4501 -2.222,6.1432 -4.444,12.2861 -6.6659,18.4292 -0.6535,3.0716 -1.3071,6.1431 -1.9606,9.2146 -0.2614,5.4243 -0.5228,10.8484 -0.7842,16.2726 -1.4378,4.5747 -2.8755,9.1492 -4.3132,13.7238 -2.0259,3.7905 -4.0518,7.5808 -6.0777,11.3712 -3.1369,3.9212 -6.2738,7.8422 -9.4106,11.7633 -5.6858,5.4243 -11.3712,10.8484 -17.0568,16.2726 1.1763,-2.4835 2.3526,-4.9668 3.529,-7.4501 1.9606,-4.248 3.9211,-8.4958 5.8816,-12.7436 1.5031,-5.2936 3.0062,-10.587 4.5093,-15.8805 0.4574,-2.418 0.9149,-4.836 1.3724,-7.254 -0.5882,-2.2874 -1.1764,-4.5746 -1.7645,-6.8619 -2.1567,-0.5228 -4.3132,-1.0456 -6.4698,-1.5685 -1.6992,-0.6535 -3.3983,-1.307 -5.0975,-1.9605 -5.2282,-3.0716 -10.4562,-6.1431 -15.6844,-9.2146 -3.5944,-2.8755 -7.1887,-5.7509 -10.783,-8.6264 -0.1307,1.4377 -0.2614,2.8755 -0.3921,4.3132 -1.2417,3.9865 -2.4834,7.9729 -3.7251,11.9593 -2.222,3.2023 -4.4439,6.4045 -6.6658,9.6067 -2.6141,2.9409 -5.2282,5.8817 -7.8422,8.8225 -3.137,1.3724 -6.2738,2.7448 -9.4107,4.1172 -1.5684,1.0456 -3.1368,2.0912 -4.7053,3.1369 -6.5353,-0.1961 -13.0703,-0.3922 -19.6055,-0.5882 1.1764,-1.1764 2.3527,-2.3527 3.529,-3.529 2.8102,-3.7251 5.6203,-7.4501 8.4304,-11.1751 2.4834,-6.1432 4.9667,-12.2861 7.4501,-18.4292 0.8496,-4.8361 1.6991,-9.6721 2.5487,-14.5081 -1.0457,-5.4243 -2.0913,-10.8484 -3.1369,-16.2725 -2.8755,-5.0976 -5.7509,-10.1949 -8.6264,-15.2923 -3.7251,-3.0716 -7.4501,-6.1431 -11.1752,-9.2146 -8.2998,-5.1629 -16.5993,-10.3256 -24.8989,-15.4884 -9.6723,-4.7707 -19.3441,-9.5413 -29.0162,-14.312 -12.5477,-6.862 -25.095,-13.7238 -37.6425,-20.5857 -5.4897,-4.248 -10.9791,-8.4958 -16.4687,-12.7436 -4.0518,-3.8558 -8.1036,-7.7115 -12.1554,-11.5673 -2.3527,-5.2936 -4.7053,-10.5869 -7.0579,-15.8804 -2.0913,-6.666 -4.1825,-13.3318 -6.2738,-19.9976 -0.065,-6.7967 -0.1307,-13.5932 -0.1961,-20.3897 0.3268,-7.581 0.6536,-15.1616 0.9803,-22.7424 1.4378,-4.6401 2.8755,-9.28 4.3132,-13.9199 -0.1307,-0.9803 -0.2614,-1.9606 -0.3921,-2.9409 -2.3527,0.9803 -4.7053,1.9606 -7.058,2.9409 -1.6338,2.0913 -3.2675,4.1825 -4.9013,6.2737 -2.6795,4.248 -5.3589,8.4957 -8.0383,12.7436 -2.0259,5.7511 -4.0518,11.5019 -6.0777,17.2528 -2.222,5.8818 -4.4439,11.7633 -6.6659,17.645 -1.8952,6.5353 -3.7904,13.0703 -5.6856,19.6055 -1.307,8.4305 -2.614,16.8607 -3.9211,25.2911 0.1961,7.1235 0.3921,14.2466 0.5882,21.37 0.9149,5.8164 1.8299,11.6326 2.7448,17.4489 1.5031,6.862 3.0062,13.7238 4.5092,20.5857 3.333,7.7117 6.6659,15.423 9.9988,23.1345 1.5032,2.8102 3.0062,5.6203 4.5093,8.4304 1.4378,2.4834 2.8755,4.9667 4.3132,7.4501 -1.8299,-0.7189 -3.6597,-1.4377 -5.4895,-2.1566 -5.2283,-2.8102 -10.4563,-5.6203 -15.6844,-8.4304 -5.555,-5.2936 -11.1098,-10.5869 -16.6647,-15.8804 -4.5093,-6.6007 -9.0185,-13.2011 -13.5278,-19.8016 -3.333,-7.0581 -6.6659,-14.1159 -9.9988,-21.1739 -2.5488,-10.7179 -5.0974,-21.4354 -7.6461,-32.153 -1.1764,-10.914 -2.3527,-21.8275 -3.529,-32.7412 2.9409,-11.4368 5.8816,-22.8731 8.8224,-34.3096 6.47,-14.0509 12.9397,-28.1013 19.4095,-42.1519 12.0903,-11.95957 24.1801,-23.91868 36.2702,-35.87803 -1.7646,-0.39212 -3.529,-0.78422 -5.2935,-1.17633 -5.1629,-0.52283 -10.3256,-1.04563 -15.4884,-1.56844 -6.4699,1.50311 -12.9396,3.00617 -19.4094,4.50926 -5.6204,2.74483 -11.2405,5.48954 -16.8607,8.23431 -8.7573,6.07783 -17.5143,12.15541 -26.2714,18.23311 -7.777,8.95332 -15.5537,17.90632 -23.3306,26.85952 0.2615,-3.2023 0.5229,-6.4044 0.7843,-9.6067 1.9606,-8.4959 3.9211,-16.99141 5.8816,-25.48713 2.7448,-7.777 5.4896,-15.55369 8.2343,-23.33054 4.1173,-6.01247 8.2343,-12.02471 12.3515,-18.03706 5.2936,-5.555 10.587,-11.10978 15.8804,-16.66467 5.9472,-2.35271 11.894,-4.70532 17.8411,-7.05798 -2.026,-1.24171 -4.0519,-2.48336 -6.0778,-3.72505 -7.0581,-3.00623 -14.1159,-6.01235 -21.1739,-9.01853 -9.2148,-2.222 -18.4292,-4.44391 -27.6437,-6.66587 -10.914,-1.76453 -21.8275,-3.52899 -32.7412,-5.29348 -13.3974,-0.13071 -26.7942,-0.26141 -40.1913,-0.39211 -12.8092,0.32676 -25.6179,0.65352 -38.4268,0.98027 -5.4243,0.84959 -10.8484,1.69915 -16.2725,2.54872 3.2023,-2.02594 6.4044,-4.0518 9.6067,-6.0777 8.8226,-4.50936 17.6449,-9.01853 26.4674,-13.5278 9.9336,-2.87553 19.8669,-5.75095 29.8003,-8.62642 12.6785,-1.82988 25.3565,-3.65969 38.0347,-5.48954 8.2345,0.26141 16.4686,0.52282 24.7029,0.78422 17.1879,1.56847 34.375,3.13688 51.5625,4.70532 17.0571,5.29359 34.1136,10.58697 51.1703,15.88046 -1.5031,-2.28736 -3.0061,-4.57462 -4.5092,-6.86193 -8.9534,-10.19506 -17.9064,-20.38972 -26.8596,-30.58458 -12.0249,-7.12347 -24.0494,-14.24666 -36.0741,-21.36999 -22.7428,-8.10377 -45.4847,-16.20721 -68.2271,-24.31082 -14.3777,-1.50312 -28.7547,-3.00618 -43.1321,-4.50926 3.6598,-0.78424 7.3194,-1.56844 10.9791,-2.35266 15.1619,-1.82989 30.3231,-3.6597 45.4847,-5.48954 12.6785,2.61412 25.3565,5.22813 38.0347,7.8422 15.6194,4.24794 31.2381,8.49571 46.8571,12.74357 12.8746,7.38489 25.7486,14.76948 38.6229,22.15421 7.5156,4.83612 15.0309,9.67205 22.5463,14.50807 -2.222,-2.74482 -4.4439,-5.48954 -6.6659,-8.23431 -12.5477,-13.13594 -25.095,-26.27137 -37.6425,-39.40705 -15.1619,-10.9793 -30.3232,-21.95816 -45.4848,-32.93724 -18.2335,-9.93365 -36.4662,-19.8669 -54.6993,-29.80036 -16.0769,-6.53529 -32.153,-13.07033 -48.2296,-19.60549 -13.0052,-3.39836 -26.0099,-6.79658 -39.0149,-10.19486 -11.3714,-2.41806 -22.7424,-4.83603 -34.1136,-7.25404 5.2283,-0.52282 10.4563,-1.04562 15.6844,-1.56844 17.58,-0.78423 35.1592,-1.56844 52.7388,-2.35266 14.1816,2.74483 28.3626,5.48954 42.544,8.23431 26.5986,7.84236 53.1962,15.6844 79.7943,23.5266 20.9783,12.87454 41.9558,25.74856 62.9337,38.62283 10.1297,7.6463 20.259,15.29229 30.3885,22.93844 -1.6338,-3.65977 -3.2676,-7.31939 -4.9014,-10.97908 -6.862,-13.13595 -13.7238,-26.27137 -20.5857,-39.40706 -10.1297,-12.35171 -20.2591,-24.70292 -30.3886,-37.05439 -13.9201,-13.26665 -27.8398,-26.53277 -41.7597,-39.79916 -15.3579,-10.9793 -30.7153,-21.95816 -46.0729,-32.93724 -18.887,-10.78324 -37.7733,-21.56605 -56.6599,-32.34907 -9.1494,-3.85583 -18.2985,-7.7115 -27.4477,-11.56725 -2.8755,-1.30706 -5.7509,-2.61406 -8.6264,-3.9211 z" /><path
       style="display:inline;fill:#2e3440;fill-opacity:1;stroke:none;stroke-width:4.08189;stroke-linecap:round;stroke-linejoin:round;stroke-dasharray:none"
       d="m 1565.0776,871.24908 c 0.791,0.0688 1.9602,2.88881 3.439,5.43372 1.4788,2.54492 3.2671,4.81466 5.3306,6.94689 2.0634,2.13223 4.4019,4.12683 6.6717,5.84637 2.2698,1.71954 4.4708,3.16393 7.5316,4.91787 3.0608,1.75394 6.9812,3.81732 12.7589,5.84639 5.7777,2.02906 13.4122,4.02366 20.3248,5.91515 6.9125,1.8915 13.1027,3.67977 19.3274,5.8464 6.2248,2.16663 12.4837,4.71146 18.3302,7.9786 5.8464,3.26715 11.28,7.25637 15.5101,10.8674 4.23,3.61103 7.2563,6.84366 9.9388,10.17959 2.6825,3.33593 5.021,6.77492 6.7061,9.87009 1.6852,3.09517 2.7169,5.84635 3.0952,8.08174 0.3783,2.23539 0.1031,3.9549 -0.6535,4.12683 -0.7566,0.17194 -1.9946,-1.20363 -4.0581,-3.64539 -2.0634,-2.44175 -4.9522,-5.94955 -8.7008,-9.45741 -3.7486,-3.50786 -8.3568,-7.0156 -13.2747,-10.48908 -4.9179,-3.47348 -10.1452,-6.9125 -16.4387,-9.93888 -6.2935,-3.02638 -13.653,-5.64003 -20.2904,-7.70347 -6.6374,-2.06344 -12.5525,-3.5766 -17.4703,-4.50514 -4.9179,-0.92854 -8.8384,-1.27244 -12.7933,-1.99465 -3.955,-0.72221 -7.9442,-1.82268 -12.0711,-3.67979 -4.1269,-1.85711 -8.3912,-4.47072 -11.4864,-6.8437 -3.0952,-2.37298 -5.021,-4.50513 -6.9469,-7.18763 -1.9259,-2.6825 -3.8517,-5.91513 -4.9178,-9.52618 -1.0661,-3.61105 -1.2725,-7.60027 -1.1693,-10.93617 0.1032,-3.33591 0.5159,-6.01832 1.3069,-5.94955 z"
       id="path4"
       inkscape:path-effect="#path-effect6"
       inkscape:original-d="m 1564.6993,868.49785 c 1.1692,2.82002 2.3385,5.64005 3.5078,8.46007 1.7883,2.26982 3.5766,4.53954 5.3649,6.80932 2.3386,1.99469 4.6771,3.9893 7.0157,5.98395 2.201,1.44443 4.402,2.8888 6.603,4.3332 3.9206,2.06347 7.841,4.12686 11.7615,6.19029 7.6349,1.99469 15.2694,3.9893 22.9041,5.98395 6.1904,1.78834 12.3806,3.57661 18.5709,5.36492 6.2592,2.54495 12.5181,5.08979 18.7772,7.63469 5.4338,3.98938 10.8674,7.9786 16.3011,11.9679 3.0264,3.23277 6.0527,6.46541 9.0791,9.69812 2.3386,3.43912 4.6771,6.8781 7.0156,10.31715 1.0318,2.7513 2.0635,5.50248 3.0952,8.25372 -0.2751,1.71956 -0.5503,3.43905 -0.8254,5.15858 -1.2381,-1.37565 -2.4761,-2.75124 -3.7142,-4.12686 -2.8888,-3.5079 -5.7776,-7.01567 -8.6664,-10.5235 -4.6084,-3.5079 -9.2166,-7.01566 -13.825,-10.52349 -5.2274,-3.43912 -10.4547,-6.8781 -15.682,-10.31715 -7.3597,-2.61373 -14.7192,-5.22736 -22.0787,-7.84104 -5.9153,-1.51321 -11.8304,-3.02636 -17.7455,-4.53955 -3.9206,-0.34391 -7.8411,-0.68781 -11.7616,-1.03171 -3.9894,-1.10052 -7.9786,-2.20099 -11.9679,-3.30149 -4.2645,-2.61373 -8.5288,-5.22736 -12.7933,-7.84104 -1.9259,-2.13225 -3.8517,-4.26442 -5.7776,-6.39663 -1.9259,-3.23277 -3.8517,-6.46541 -5.7776,-9.69812 -0.2063,-3.98938 -0.4126,-7.9786 -0.619,-11.9679 0.4127,-2.68251 0.8254,-5.36492 1.2381,-8.04738 z"
       sodipodi:insensitive="true" /><path
       style="fill:#2e3440;fill-opacity:1;stroke:none;stroke-width:4.08189;stroke-linecap:round;stroke-linejoin:round;stroke-dasharray:none"
       d="m 1603.0103,928.16539 c 3.8517,-0.65343 12.1742,-0.65343 18.8116,0.13758 6.6375,0.79101 11.5896,2.37293 16.3699,4.16126 4.7804,1.78834 9.3886,3.78293 13.206,6.43102 3.8173,2.64809 6.8436,5.94951 9.0102,9.01031 2.1667,3.0608 3.4735,5.88076 3.8174,7.87541 0.3439,1.99464 -0.2752,3.16388 -1.3757,4.81467 -1.1005,1.6508 -2.6824,3.78296 -6.1903,4.57392 -3.5079,0.79097 -8.9414,0.24074 -13.7217,-0.27513 -4.7804,-0.51586 -8.9072,-0.99732 -13.7563,-3.64544 -4.8491,-2.64812 -10.4203,-7.46271 -14.3752,-11.07372 -3.9549,-3.61101 -6.2934,-6.01828 -8.4257,-8.94152 -2.1322,-2.92324 -4.058,-6.36221 -5.3305,-8.73516 -1.2724,-2.37296 -1.8915,-3.67976 1.9603,-4.3332 z"
       id="path6"
       inkscape:path-effect="#path-effect7"
       inkscape:original-d="m 1598.5395,927.51196 c 8.3225,0 16.645,0 24.9675,0 4.9524,1.582 9.9045,3.16393 14.8567,4.74589 4.6085,1.99469 9.2167,3.9893 13.825,5.98395 3.0264,3.30155 6.0527,6.60298 9.0791,9.90447 1.3069,2.82007 2.6137,5.64004 3.9205,8.46006 -0.619,1.1693 -1.238,2.33855 -1.8571,3.50783 -1.582,2.13226 -3.1639,4.26442 -4.7458,6.39664 -5.4339,-0.55026 -10.8674,-1.1005 -16.3011,-1.65075 -4.127,-0.48147 -8.2538,-0.96293 -12.3806,-1.4444 -5.5714,-4.81477 -11.1426,-9.62934 -16.7138,-14.44401 -2.3386,-2.40739 -4.6771,-4.81467 -7.0157,-7.22201 -1.9259,-3.43912 -3.8517,-6.8781 -5.7776,-10.31715 -0.619,-1.30687 -1.238,-2.61368 -1.8571,-3.92052 z"
       inkscape:label="path5"
       sodipodi:insensitive="true" /><path
       style="fill:#4c566b;fill-opacity:1;stroke:none;stroke-width:4.08189;stroke-linecap:round;stroke-linejoin:round;stroke-dasharray:none"
       d="m 885.22561,826.96244 c 14.93295,-8.92166 46.48833,-26.8215 78.78217,-41.7689 32.29384,-14.9474 65.32482,-26.94188 102.41662,-37.64497 37.0918,-10.70309 78.2422,-20.11417 109.4287,-24.45071 31.1865,-4.33655 52.4075,-3.59843 69.2003,-1.9376 16.7927,1.66083 29.1563,4.24427 48.7172,10.05719 19.5609,5.81292 46.3179,14.85495 68.0008,24.08176 21.683,9.22682 38.2907,18.63786 45.2432,23.30085 6.9524,4.66299 4.2494,4.57773 -1.5828,3.47135 -5.8322,-1.10637 -14.7931,-3.23378 -23.5608,-4.23303 -8.7677,-0.99925 -17.3418,-0.87032 -25.7872,-0.51573 -8.4454,0.35458 -16.7616,0.93477 -23.9176,2.51427 -7.156,1.5795 -13.1514,4.15816 -18.8246,6.4468 -5.6733,2.28864 -11.024,4.28709 -13.8928,6.28562 -2.8688,1.99853 -3.2557,3.997 -2.8044,6.02775 0.4513,2.03076 1.7407,4.09372 5.0286,6.06 3.2879,1.96629 8.5742,3.83583 16.2782,6.70468 7.704,2.86886 17.8253,6.73686 28.5271,10.28263 10.7018,3.54577 21.9835,6.76912 32.4596,9.83137 10.4761,3.06225 20.1461,5.96325 29.3651,9.86363 9.2191,3.90037 17.9865,8.7998 20.7909,11.02395 2.8043,2.22414 -0.3546,1.77287 -5.8344,0.96701 -5.4799,-0.80586 -13.2804,-1.96626 -22.5961,-2.61094 -9.3157,-0.64468 -20.1461,-0.77361 -29.7197,-0.67691 -9.5736,0.0967 -17.8898,0.41904 -26.4641,1.41831 -8.5744,0.99928 -17.4063,2.67541 -26.4964,5.64097 -9.09,2.96556 -18.4377,7.22037 -26.3029,11.05624 -7.8651,3.83587 -14.2473,7.2526 -20.9521,11.57201 -6.7047,4.31941 -13.7316,9.54124 -18.9535,14.40862 -5.222,4.86739 -8.6387,9.38004 -9.2189,11.92653 -0.5802,2.54649 1.6762,3.12671 15.537,4.31937 13.8609,1.19267 39.3252,2.99773 60.213,4.22263 20.8878,1.2249 37.1979,1.86957 48.2865,2.8366 11.0885,0.96704 16.955,2.25638 17.9542,3.35234 0.9992,1.09595 -2.8688,1.99849 -12.6681,4.19044 -9.7993,2.19195 -25.5292,5.67315 -41.3562,10.18597 -15.8271,4.51281 -31.7503,10.05693 -46.6748,15.66571 -14.9245,5.60878 -28.8493,11.28184 -42.5167,17.40636 -13.6673,6.12453 -27.0764,12.70014 -40.1635,19.9851 -13.0871,7.28495 -25.8515,15.27879 -38.584,24.23999 -12.7326,8.9611 -25.4326,18.8891 -35.5541,27.689 -10.1215,8.7999 -17.6641,16.4714 -24.6912,24.1432 -7.0271,7.6718 -13.5382,15.3433 -19.2437,22.8217 -5.7055,7.4783 -10.605,14.7631 -15.6657,22.9506 -5.0608,8.1875 -10.2826,17.2773 -14.6987,26.5931 -4.4161,9.3157 -8.0262,18.8567 -10.895,27.56 -2.8689,8.7032 -4.9963,16.5682 -7.3494,27.0766 -2.3531,10.5084 -4.9318,23.6596 -6.3823,36.231 -1.4505,12.5713 -1.7729,24.5622 -1.5795,36.9079 0.1934,12.3457 0.9026,25.0457 2.6755,37.0046 1.7728,11.9589 4.6094,23.1761 7.8006,33.8457 3.1912,10.6695 6.7368,20.7908 11.8299,30.3644 5.093,9.5736 11.7331,18.5989 17.8899,26.9476 6.1567,8.3487 11.8298,16.0202 18.7601,22.4348 6.9304,6.4146 15.1177,11.572 25.1103,17.8899 9.9927,6.3179 21.7901,13.7961 35.2319,20.4363 13.4417,6.6403 28.5269,12.4423 42.9679,17.3741 14.4409,4.9319 28.2368,8.9933 44.1605,13.0871 15.9238,4.0937 33.9745,8.2196 59.1818,12.9902 25.2073,4.7707 57.5696,10.1859 98.851,16.4938 41.2815,6.3078 91.4796,13.5079 147.2442,22.6527 55.7647,9.1447 117.0926,20.2335 163.0331,31.2661 45.9406,11.0325 76.4914,22.0082 113.7193,37.1709 37.2279,15.1628 81.1305,34.5116 113.2096,53.5781 32.0792,19.0665 52.3332,37.8496 69.9287,55.3885 17.5955,17.539 32.5315,33.8327 46.2797,55.1058 13.7483,21.2731 26.308,47.5241 34.9077,70.551 8.5997,23.0269 13.2389,42.8283 16.973,60.537 3.7341,17.7086 6.5629,33.3235 8.2036,56.0111 1.6407,22.6875 2.0933,52.4462 -0.2264,85.9965 -2.3197,33.5504 -7.4115,70.8902 -14.7666,105.0628 -7.355,34.1726 -16.9729,65.176 -27.666,96.9724 -10.6931,31.7964 -22.4607,64.3839 -34.6814,93.6909 -12.2207,29.307 -24.8936,55.3317 -29.8723,63.4221 -4.9788,8.0903 -2.2632,-1.7538 2.6025,-20.3678 4.8657,-18.614 11.8811,-45.9966 18.1045,-72.8142 6.2235,-26.8175 11.6548,-53.0686 15.6717,-79.0941 4.017,-26.0255 6.6195,-51.824 8.9391,-85.3178 2.3197,-33.4938 4.3564,-74.6807 3.7341,-110.1546 -0.6224,-35.4739 -3.9038,-65.2326 -10.3536,-94.2567 -6.4498,-29.0241 -16.0677,-57.3119 -27.8923,-80.5651 -11.8247,-23.2531 -25.8555,-41.4705 -46.6194,-62.4606 -20.7639,-20.9902 -48.2596,-44.7519 -82.206,-62.1211 -33.9464,-17.3691 -74.3413,-28.3447 -123.2241,-39.6036 -48.8828,-11.2589 -106.2504,-22.8003 -142.7425,-27.4396 -36.4921,-4.6393 -52.1069,-2.3763 -59.9711,1.2447 -7.8642,3.621 -7.9773,8.5996 -7.5247,21.9519 0.4526,13.3523 1.471,35.0774 6.2801,53.8044 4.8091,18.727 13.4086,34.455 22.4609,48.7691 9.0524,14.314 18.5571,27.2132 29.7028,37.7931 11.1458,10.5799 23.9318,18.8399 28.5145,22.7437 4.5827,3.9038 0.9618,3.4512 -8.3735,1.471 -9.3353,-1.9802 -24.3844,-5.4879 -39.6036,-10.7496 -15.2193,-5.2617 -30.6078,-12.2771 -50.0704,-23.536 -19.4627,-11.2589 -42.9981,-26.7606 -58.4436,-42.2062 -15.4455,-15.4456 -22.8003,-30.8341 -29.0238,-42.7719 -6.2235,-11.9377 -11.3153,-20.424 -15.502,-31.4001 -4.1867,-10.976 -7.4681,-24.4409 -11.2278,-36.5291 -3.7598,-12.0882 -7.9977,-22.7989 -12.9304,-28.9164 -4.9327,-6.1174 -10.5601,-7.6415 -15.1128,-8.4231 -4.5528,-0.7816 -8.0308,-0.8207 -12.5836,0.6448 -4.5528,1.4655 -10.1802,4.4355 -16.0359,10.3956 -5.8557,5.9601 -11.9394,14.9099 -17.6967,26.141 -5.7573,11.231 -11.1877,24.7426 -15.2607,36.7676 -4.073,12.0249 -6.7882,22.5626 -9.6975,36.4625 -2.9093,13.8999 -6.0124,31.161 -6.9498,46.6125 -0.9374,15.4514 0.2909,29.0923 1.5193,41.7637 1.2284,12.6715 2.4567,24.3729 4.8811,35.3635 2.4244,10.9905 6.0447,21.2696 7.1114,26.3123 1.0667,5.0427 -0.4202,4.8488 -5.3013,3.2002 -4.8812,-1.6486 -13.1562,-4.7518 -20.2677,-8.8248 -7.1116,-4.0729 -13.0593,-9.1156 -22.4659,-17.6494 -9.4067,-8.5339 -22.2718,-20.5585 -31.4198,-32.0663 -9.148,-11.5078 -14.5784,-22.498 -20.2353,-34.1028 -5.657,-11.6048 -11.54,-23.8233 -15.4513,-34.3613 -3.9113,-10.538 -5.8508,-19.3949 -8.8894,-35.7192 -3.0386,-16.3243 -7.1761,-40.115 -8.7923,-57.6675 -1.6163,-17.5525 -0.7112,-28.866 -0.4203,-43.1861 0.291,-14.3201 -0.032,-31.6459 -2.6506,-44.5113 -2.6184,-12.8654 -7.5317,-21.2697 -12.3482,-29.6419 -4.8164,-8.3723 -9.5358,-16.712 -15.6452,-21.1405 -6.1095,-4.4285 -13.6087,-4.9457 -21.3991,-5.3013 -7.7904,-0.3555 -15.8715,-0.5495 -25.4398,3.0387 -9.5682,3.5881 -20.6231,10.958 -30.2237,18.0372 -9.6006,7.0793 -17.7463,13.8674 -26.4418,25.6338 -8.6955,11.7664 -17.9402,28.5104 -24.8446,43.4605 -6.9044,14.9501 -11.4682,28.1055 -14.2741,40.6148 -2.8059,12.5093 -3.8538,24.3717 -4.3777,35.438 -0.524,11.0664 -0.524,21.336 0.7336,31.6478 1.2575,10.3118 3.7725,20.6653 5.4283,27.1625 1.6558,6.4973 2.4522,9.138 1.9072,9.138 -0.5449,0 -2.4312,-2.6408 -5.617,-7.3146 -3.1857,-4.6739 -7.6708,-11.3806 -12.3866,-19.6384 -4.7158,-8.2579 -9.66193,-18.0664 -14.58731,-29.049 -4.92538,-10.9825 -9.82963,-23.1383 -16.51871,-42.989 -6.68908,-19.8507 -15.16255,-47.3949 -19.28428,-73.7113 -4.12172,-26.3165 -3.89156,-51.4037 -3.14352,-74.4201 0.74804,-23.0164 2.0139,-43.9607 3.9703,-59.6119 1.9564,-15.6511 4.60322,-26.0082 6.71047,-37.1793 2.10725,-11.1711 3.67483,-23.1555 3.81362,-32.1196 0.13878,-8.964 -1.15122,-14.9072 -2.76376,-21.0348 -1.61254,-6.1277 -3.54754,-12.4395 -6.01242,-16.3326 -2.46489,-3.8931 -5.45953,-5.3674 -8.79981,-6.6574 -3.34027,-1.2901 -7.02596,-2.3958 -11.79449,-1.6356 -4.76854,0.7603 -10.61957,3.3863 -16.93154,7.2334 -6.31196,3.8471 -13.08442,8.9149 -18.06025,13.4761 -4.97583,4.5612 -8.1547,8.6154 -15.27297,18.3368 -7.11827,9.7214 -18.17537,25.1092 -25.24748,37.3645 -7.07211,12.2553 -10.15888,21.3774 -14.05202,33.5406 -3.89314,12.1632 -8.59241,27.3667 -11.35675,39.7372 -2.76433,12.3704 -3.59362,21.9072 -3.73183,33.863 -0.13821,11.9559 0.41464,26.3301 0.16122,31.4671 -0.25341,5.137 -1.31304,1.0367 -2.97166,-7.625 -1.65862,-8.6617 -3.9161,-21.8841 -5.13702,-31.8818 -1.22091,-9.9978 -1.40519,-16.7703 -1.72886,-34.1052 -0.32367,-17.3348 -0.7867,-45.2308 1.14418,-67.5584 1.93089,-22.3276 6.25554,-39.0856 14.01699,-66.2314 7.76146,-27.1457 18.95918,-64.6774 37.84152,-99.5073 18.88234,-34.8298 45.44799,-66.9557 62.40011,-90.1911 16.95213,-23.2353 24.28992,-37.5789 28.49312,-48.1748 4.20321,-10.5959 5.27163,-17.4435 5.46588,-23.1014 0.19425,-5.6579 -0.48566,-10.1259 -2.4526,-13.8897 -1.96693,-3.7639 -5.22078,-6.8235 -10.05311,-9.6646 -4.83233,-2.8411 -11.24286,-5.4636 -16.80366,-6.7263 -5.5608,-1.2627 -10.27157,-1.1655 -17.5565,-0.9713 -7.28494,0.1943 -17.14355,0.4856 -33.68923,3.8764 -16.54569,3.3909 -39.77729,9.8809 -60.08756,17.1718 -20.31027,7.2909 -37.69802,15.3822 -52.58993,23.9903 -14.89191,8.608 -27.28716,17.7323 -38.64978,26.986 -11.36262,9.2536 -21.69202,18.6362 -31.97865,29.7406 -10.28663,11.1044 -20.52991,23.93 -26.38337,31.3329 -5.85345,7.4029 -7.31678,9.3827 -7.40284,8.3066 -0.0861,-1.076 1.20509,-5.2077 5.48602,-16.261 4.28092,-11.0533 11.5513,-29.0274 21.0472,-46.3506 9.4959,-17.3231 21.21676,-33.9944 35.71674,-52.2189 14.49998,-18.2245 31.7782,-38.0012 46.57932,-51.789 14.80112,-13.7879 27.12425,-21.5861 45.39297,-32.5377 18.26871,-10.9516 42.48177,-25.05583 66.97533,-35.18487 24.49355,-10.12904 49.26613,-16.28238 70.20095,-21.67874 20.93483,-5.39636 38.03077,-10.03546 57.27497,-12.44096 19.2442,-2.40549 40.6355,-2.57731 58.9314,-2.74984 18.2958,-0.17254 33.495,-0.34578 43.866,-2.34203 10.3711,-1.99625 15.9134,-5.81531 20.5477,-9.07562 4.6343,-3.26031 8.3602,-5.96161 7.9876,-10.20002 -0.3727,-4.2384 -4.8438,-10.01361 -10.9918,-15.789 -6.148,-5.77538 -13.9725,-11.55059 -26.6412,-18.14107 -12.6686,-6.59048 -30.1805,-13.99579 -46.9823,-20.02168 -16.8017,-6.0259 -32.8923,-10.67204 -51.4607,-14.08954 -18.5684,-3.41749 -39.61344,-5.60617 -56.95506,-6.74263 -17.34163,-1.13646 -30.97884,-1.22064 -41.85239,-0.87435 -10.87355,0.34629 -18.98285,1.12302 -25.65145,2.00927 -6.66861,0.88625 -11.89616,1.88198 -15.27237,2.51988 -3.37621,0.6379 -4.90091,0.91795 -6.50803,1.08623 -1.60711,0.16827 -3.29654,0.22478 11.63641,-8.69689 z"
       id="path8"
       inkscape:path-effect="#path-effect9"
       inkscape:original-d="m 868.60319,835.94061 c 31.55537,-17.89983 63.11075,-35.79966 94.66612,-53.6995 33.03231,-11.99497 66.06329,-23.98946 99.09499,-35.9842 41.1519,-9.41144 82.3023,-18.8225 123.4534,-28.23375 21.2219,0.73815 42.4429,1.47627 63.6644,2.21441 12.364,2.58353 24.7276,5.16696 37.0914,7.75044 26.758,9.04237 53.515,18.08437 80.2724,27.12655 16.6085,9.41144 33.2162,18.82251 49.8243,28.23376 -2.7032,-0.0853 -5.4062,-0.17053 -8.1094,-0.2558 -8.9612,-2.12749 -17.9221,-4.25489 -26.8831,-6.38233 -8.5744,0.12894 -17.1485,0.25787 -25.7227,0.38681 -8.3166,0.58022 -16.6328,1.16042 -24.9491,1.74063 -5.9957,2.57877 -11.9911,5.15744 -17.9866,7.73616 -5.351,1.99855 -10.7017,3.99701 -16.0525,5.99552 -0.3869,1.99855 -0.7737,3.99702 -1.1605,5.99552 1.2894,2.06302 2.5788,4.12595 3.8681,6.18893 5.2865,1.86961 10.5728,3.73914 15.8591,5.60871 10.1217,3.86816 20.243,7.73616 30.3645,11.60424 11.2821,3.22346 22.5638,6.4468 33.8456,9.67019 9.6704,2.90112 19.3404,5.80212 29.0106,8.70318 8.7679,4.89967 17.5353,9.79913 26.303,14.6987 -3.159,-0.45128 -6.3179,-0.90255 -9.4768,-1.35383 -7.8008,-1.16044 -15.6013,-2.32084 -23.4019,-3.48127 -10.8308,-0.12894 -21.6612,-0.25787 -32.4919,-0.38681 -8.3165,0.32235 -16.6327,0.64468 -24.9491,0.96702 -8.8323,1.6762 -17.6642,3.35234 -26.4963,5.02851 -9.348,4.25497 -18.6957,8.50977 -28.0436,12.76466 -6.3824,3.41687 -12.7646,6.8336 -19.147,10.2504 -7.0271,5.22201 -14.054,10.44382 -21.081,15.66572 -3.4169,4.51285 -6.8336,9.02552 -10.2504,13.53828 2.2564,0.58022 4.5128,1.16042 6.7691,1.74063 25.4654,1.80514 50.9297,3.61021 76.3946,5.41531 16.3107,0.6447 32.6208,1.28936 48.9312,1.93404 5.8667,1.28939 11.7332,2.57872 17.5997,3.86808 -3.8681,0.90257 -7.7361,1.8051 -11.6042,2.70766 -15.7305,3.48134 -31.4604,6.96254 -47.1906,10.44381 -15.9239,5.54436 -31.8471,11.08849 -47.7707,16.63274 -13.9254,5.67329 -27.8502,11.34636 -41.7753,17.01954 -13.4096,6.57587 -26.8187,13.15147 -40.228,19.7272 -12.7649,7.99419 -25.5293,15.98803 -38.294,23.98213 -12.7004,9.9282 -25.4004,19.8561 -38.1005,29.7842 -7.5429,7.6718 -15.0855,15.3433 -22.6283,23.015 -6.5114,7.6719 -13.0225,15.3434 -19.5338,23.0151 -4.8997,7.285 -9.7991,14.5698 -14.6987,21.8546 -5.222,9.0902 -10.4438,18.18 -15.6657,27.27 -3.6103,9.5415 -7.2204,19.0825 -10.8306,28.6238 -2.1275,7.8652 -4.2549,15.7302 -6.3824,23.5953 -2.5787,13.1517 -5.1574,26.3029 -7.7361,39.4544 -0.3224,11.9912 -0.6447,23.9821 -0.967,35.9731 0.7091,12.7004 1.4183,25.4004 2.1274,38.1006 2.8366,11.2176 5.6732,22.4348 8.5098,33.6523 3.5458,10.1216 7.0914,20.2429 10.6372,30.3644 6.6403,9.0257 13.2804,18.051 19.9206,27.0765 5.6733,7.6719 11.3464,15.3434 17.0195,23.0151 8.1876,5.1575 16.3749,10.3149 24.5623,15.4723 11.7979,7.4784 23.5953,14.9566 35.393,22.4349 15.0858,5.8022 30.171,11.6042 45.2565,17.4063 13.7964,4.0616 27.5923,8.123 41.3884,12.1845 18.0514,4.126 36.1021,8.2519 54.1531,12.3778 32.3636,5.4154 64.7259,10.8306 97.0888,16.2459 50.2,7.2004 100.3981,14.4005 150.5971,21.6008 61.3303,11.0892 122.6582,22.178 183.9873,33.267 30.552,10.9761 61.1028,21.9518 91.6542,32.9277 43.9044,19.3496 87.807,38.6984 131.7105,58.0476 20.2548,18.7838 40.5088,37.5669 60.7633,56.3504 14.9365,16.2944 29.8725,32.5881 44.8087,48.8822 12.5603,26.2521 25.12,52.5031 37.68,78.7547 4.6394,19.8022 9.2786,39.6036 13.9179,59.4055 2.8289,15.6154 5.6577,31.2303 8.4865,46.8455 0.4526,29.7599 0.9052,59.5186 1.3578,89.2779 -5.092,37.3414 -10.1838,74.6812 -15.2757,112.0218 -9.6182,31.0046 -19.236,62.008 -28.8541,93.012 -11.7681,32.5888 -23.5358,65.1763 -35.3038,97.7645 -12.6734,26.0258 -25.3463,52.0505 -38.0195,78.0758 2.7157,-9.8446 5.4314,-19.6887 8.147,-29.533 7.0157,-27.3837 14.0311,-54.7663 21.0466,-82.1494 5.4314,-26.252 10.8627,-52.5031 16.294,-78.7547 2.6026,-25.7994 5.2051,-51.5979 7.8076,-77.3968 2.0368,-41.1887 4.0735,-82.3756 6.1103,-123.5634 -3.2815,-29.76 -6.5629,-59.5187 -9.8443,-89.278 -9.6183,-28.2889 -19.2361,-56.5767 -28.8541,-84.865 -14.0313,-18.218 -28.0621,-36.4354 -42.0931,-54.653 -27.4968,-23.7627 -54.9925,-47.5244 -82.4887,-71.2866 -40.3966,-10.9761 -80.7915,-21.9518 -121.1872,-32.9276 -57.3699,-11.5419 -114.7375,-23.0833 -172.1062,-34.625 -15.6155,2.2632 -31.2303,4.5262 -46.8455,6.7892 -0.1132,4.9789 -0.2263,9.9575 -0.3395,14.9363 1.0184,21.7258 2.0368,43.4509 3.0552,65.1763 8.5998,15.7286 17.1993,31.4566 25.7989,47.1849 9.5051,12.8998 19.0098,25.799 28.5147,38.6985 12.7866,8.2603 25.5726,16.5203 38.3589,24.7805 -3.6209,-0.4526 -7.2418,-0.9052 -10.8627,-1.3578 -15.0497,-3.5078 -30.0988,-7.0155 -45.1481,-10.5233 -15.3892,-7.0156 -30.7777,-14.031 -46.1666,-21.0465 -23.5364,-15.5023 -47.0718,-31.004 -70.6077,-46.506 -7.3551,-15.3892 -14.7099,-30.7777 -22.0649,-46.1666 -5.092,-8.4866 -10.1838,-16.9729 -15.2757,-25.4594 -3.2815,-13.4656 -6.5628,-26.9305 -9.8443,-40.3958 -4.238,-10.7111 -8.4759,-21.4218 -12.7139,-32.1326 -5.6275,-1.5242 -11.2549,-3.0482 -16.8823,-4.5723 -3.4781,-0.039 -6.9561,-0.078 -10.4342,-0.1173 -5.6275,2.9701 -11.2549,5.9401 -16.8823,8.9101 -6.084,8.9502 -12.1677,17.9 -18.2516,26.8501 -5.4307,13.512 -10.8612,27.0236 -16.2917,40.5354 -2.7154,10.5381 -5.4306,21.0758 -8.1459,31.6137 -3.1033,17.2619 -6.2064,34.523 -9.3096,51.7845 1.2284,13.6414 2.4567,27.2823 3.6851,40.9234 1.2283,11.7018 2.4566,23.4032 3.685,35.1048 3.6205,10.2795 7.2408,20.5586 10.8612,30.838 -1.487,-0.194 -2.9739,-0.3879 -4.4609,-0.5819 -8.2753,-3.1032 -16.5503,-6.2064 -24.8255,-9.3096 -5.9479,-5.0427 -11.8956,-10.0853 -17.8433,-15.128 -12.8656,-12.0251 -25.7307,-24.0497 -38.596,-36.0746 -5.4307,-10.9907 -10.8611,-21.9809 -16.2917,-32.9714 -5.8833,-12.2191 -11.7663,-24.4376 -17.6494,-36.6564 -1.9396,-8.8572 -3.879,-17.7141 -5.8185,-26.5711 -4.1377,-23.7916 -8.2752,-47.5823 -12.4128,-71.3734 0.9051,-11.3139 1.8102,-22.6274 2.7153,-33.9411 -0.3232,-17.3265 -0.6465,-34.6523 -0.9697,-51.9785 -4.9135,-8.4046 -9.8268,-16.8089 -14.7402,-25.2134 -4.7195,-8.34 -9.4389,-16.6797 -14.1583,-25.0195 -7.4995,-0.5172 -14.9987,-1.0344 -22.4981,-1.5516 -8.0814,-0.1939 -16.1625,-0.3879 -24.2437,-0.5818 -11.0553,7.3702 -22.1102,14.7401 -33.1654,22.1102 -8.146,6.7884 -16.2917,13.5765 -24.4376,20.3647 -9.2451,16.7446 -18.4898,33.4886 -27.7347,50.2329 -4.5639,13.1559 -9.1277,26.3113 -13.6915,39.467 -1.0479,11.8629 -2.0958,23.7253 -3.1438,35.588 0,10.27 0,20.5396 0,30.8094 2.5151,10.3538 5.0301,20.7073 7.5452,31.0609 0.7964,2.6409 1.5929,5.2816 2.3893,7.9224 -1.8863,-2.6408 -3.7726,-5.2816 -5.6589,-7.9224 -4.4852,-6.7069 -8.9703,-13.4136 -13.4555,-20.1204 -4.9464,-9.8089 -9.89256,-19.6174 -14.83884,-29.4262 -4.90445,-12.1563 -9.80871,-24.3121 -14.71306,-36.4682 -8.4738,-27.5453 -16.94726,-55.0895 -25.42089,-82.6342 0.23017,-25.0882 0.46032,-50.1754 0.69049,-75.263 1.26591,-20.9452 2.53178,-41.8895 3.79767,-62.8343 2.64692,-10.3575 5.29373,-20.7146 7.94059,-31.0719 1.56764,-11.9849 3.13522,-23.9693 4.70284,-35.954 -1.29005,-5.9434 -2.58004,-11.8866 -3.87007,-17.8299 -1.93506,-6.312 -3.87006,-12.6238 -5.80509,-18.9357 -2.99475,-1.4743 -5.98938,-2.9486 -8.98407,-4.4229 -3.68585,-1.1058 -7.37154,-2.2115 -11.05732,-3.3172 -5.85128,2.6262 -11.70233,5.2522 -17.55349,7.8783 -6.77274,5.0681 -13.54522,10.1359 -20.31782,15.2038 -3.17905,4.0545 -6.35796,8.1087 -9.53694,12.1631 -11.05754,15.3884 -22.11464,30.7762 -33.17196,46.1643 -3.08689,9.1225 -6.17367,18.2446 -9.2605,27.3669 -4.69946,15.2041 -9.39872,30.4076 -14.09808,45.6114 -0.82932,9.5371 -1.6586,19.0739 -2.4879,28.6108 0.55288,14.3748 1.10573,28.749 1.6586,43.1236 -1.05968,-4.1006 -2.11932,-8.2009 -3.17898,-12.3013 -2.25758,-13.223 -4.51507,-26.4454 -6.77261,-39.6681 -0.18429,-6.7728 -0.36858,-13.5453 -0.55286,-20.3179 -0.46305,-27.8971 -0.92608,-55.7931 -1.38912,-83.6897 4.32482,-16.7586 8.64946,-33.5166 12.97419,-50.2749 11.19818,-37.5332 22.39591,-75.0649 33.59387,-112.5974 26.56672,-32.1272 53.13237,-64.2531 79.69856,-96.3797 7.33807,-14.3441 14.67585,-28.6877 22.01378,-43.0316 1.06846,-6.8479 2.13688,-13.6955 3.20532,-20.5432 -0.67993,-4.4681 -1.35983,-8.9361 -2.03975,-13.4041 -3.25396,-3.0597 -6.50779,-6.1193 -9.76168,-9.1789 -6.41078,-2.6226 -12.82131,-5.2451 -19.23197,-7.8676 -4.71095,0.097 -9.42172,0.1942 -14.13258,0.2914 -9.85901,0.2914 -19.71762,0.5827 -29.57644,0.8741 -23.23254,6.4903 -46.46414,12.9803 -69.69622,19.4704 -17.38846,8.0917 -34.77622,16.183 -52.16433,24.2745 -12.39574,9.1246 -24.79098,18.2489 -37.18646,27.3734 -10.32978,9.3828 -20.65914,18.7654 -30.98872,28.1481 -10.24369,12.8261 -20.48698,25.6517 -30.73047,38.4776 -1.46339,1.9799 -2.92671,3.9597 -4.39007,5.9395 1.29122,-4.1319 2.58239,-8.2636 3.87359,-12.3955 7.27065,-17.9747 14.54101,-35.9488 21.81151,-53.9232 11.7213,-16.6719 23.44213,-33.3432 35.16319,-50.0147 17.27893,-19.7775 34.55715,-39.5542 51.83573,-59.3313 12.32364,-7.7986 24.64679,-15.5968 36.97019,-23.3952 24.21403,-14.1048 48.42709,-28.20903 72.64064,-42.31354 24.77356,-6.15357 49.54614,-12.3069 74.31921,-18.46036 17.09658,-4.63927 34.19252,-9.27836 51.28872,-13.91754 21.3922,-0.17182 42.7835,-0.34364 64.1753,-0.51546 15.1999,-0.17325 30.3991,-0.34649 45.5986,-0.51973 5.5426,-3.81925 11.0849,-7.63834 16.6274,-11.45751 3.7261,-2.70142 7.452,-5.40273 11.178,-8.10409 -4.4713,-5.77545 -8.9424,-11.55066 -13.4136,-17.326 -7.8248,-5.77544 -15.6493,-11.55066 -23.474,-17.32599 -17.5126,-7.40561 -35.0245,-14.81093 -52.5368,-22.21639 -16.0912,-4.64632 -32.1818,-9.29244 -48.2726,-13.93867 -21.046,-2.18877 -42.09104,-4.37746 -63.13654,-6.56619 -13.63775,-0.0842 -27.27496,-0.16836 -40.91244,-0.25255 -8.10962,0.77676 -16.21892,1.55349 -24.32837,2.33023 -5.22776,0.99576 -10.45531,1.99149 -15.68296,2.98723 -1.52477,0.28006 -3.04947,0.56011 -4.5742,0.84016 -1.6895,0.0565 -3.37893,0.11301 -5.0684,0.16951 z" /><path
       style="fill:#4c566b;fill-opacity:1;stroke:none;stroke-width:4.08189;stroke-linecap:round;stroke-linejoin:round;stroke-dasharray:none"
       d="m 1378.4449,973.90123 c -0.2515,6.08196 -2.5795,18.81701 -4.1885,31.24407 -1.609,12.4271 -2.499,24.5457 -2.8414,30.9132 -0.3423,6.3676 -0.1369,6.9838 1.0613,6.6072 1.1982,-0.3766 3.3892,-1.746 9.4144,-6.4703 6.0253,-4.7244 15.8845,-12.8035 25.5044,-20.1638 9.6198,-7.3604 18.9998,-14.0017 25.7097,-18.38368 6.7099,-4.38197 10.7494,-6.50443 12.4269,-6.98371 1.6774,-0.47929 0.9928,0.68467 -2.6361,6.70998 -3.6289,6.02531 -10.2017,16.91151 -14.926,26.73681 -4.7243,9.8252 -7.5999,18.5889 -9.7567,27.6952 -2.1568,9.1064 -3.5946,18.5548 -4.1765,27.3188 -0.582,8.764 -0.3081,16.8431 -1.0271,21.1223 -0.7189,4.2793 -2.4305,4.7585 -7.8396,6.2991 -5.4091,1.5406 -14.5151,4.1423 -24.3746,7.6342 -9.8596,3.492 -20.4719,7.8738 -31.0161,12.6667 -10.5442,4.7928 -21.0196,9.9962 -31.1187,16.0557 -10.0991,6.0595 -19.8214,12.9746 -27.0791,19.1025 -7.2576,6.128 -12.0503,11.4684 -16.7404,17.3225 -4.6901,5.8541 -9.2774,12.2215 -13.0432,17.9044 -3.7657,5.6829 -6.7098,10.6809 -9.0035,17.4594 -2.2937,6.7784 -3.9369,15.3367 -4.7585,21.8412 -0.8216,6.5045 -0.8216,10.9549 -0.2054,16.0558 0.6163,5.1009 1.8487,10.8521 3.8,16.8773 1.9514,6.0253 4.6216,12.3243 7.6,17.973 2.9784,5.6486 6.2648,10.6467 9.0035,14.6521 2.7388,4.0054 4.9297,7.0179 10.373,10.8522 5.4433,3.8342 14.1385,8.4899 25.162,13.4882 11.0235,4.9982 24.3745,10.3386 47.1062,17.699 22.7318,7.3604 54.8426,16.7404 87.0914,25.5044 32.2488,8.764 64.6335,16.9115 95.2732,24.7512 30.6398,7.8396 59.5327,15.3709 89.7274,23.3818 30.1948,8.0108 61.6895,16.5007 94.6572,26.4971 32.9677,9.9965 67.4064,21.4988 98.2173,32.9331 30.8109,11.4343 57.9922,22.7998 83.8392,35.2269 25.8469,12.4271 50.3579,25.915 74.6643,45.9422 24.3064,20.0272 48.4067,46.5923 67.1328,70.4879 18.7262,23.8955 32.0772,45.1201 43.4772,68.2283 11.4001,23.1083 20.8484,48.0986 27.0106,71.3095 6.1621,23.2109 9.0377,44.641 10.1332,63.7779 1.0955,19.137 0.4109,35.9798 -0.2396,42.313 -0.6505,6.3333 -1.2667,2.1569 -2.9442,-7.3603 -1.6774,-9.5172 -4.4161,-24.3745 -8.9693,-39.7458 -4.5532,-15.3712 -10.9206,-31.2555 -17.4936,-44.0249 -6.573,-12.7693 -13.3512,-22.4231 -25.5044,-39.0953 -12.1533,-16.6722 -29.6808,-40.3617 -62.6828,-67.8862 -33.0021,-27.5245 -81.4766,-58.8823 -144.4683,-89.6719 -62.9917,-30.7897 -140.4966,-61.0094 -225.0564,-85.0264 -84.5598,-24.017 -176.1693,-41.8299 -249.6144,-55.6141 -73.4451,-13.7842 -128.7218,-23.5389 -165.4089,-33.6473 -36.6871,-10.1085 -54.7828,-20.5701 -71.8187,-33.0113 -17.0359,-12.4412 -33.0111,-26.8612 -43.4022,-42.4834 -10.3912,-15.6221 -15.1978,-32.4454 -19.2271,-52.9451 -4.0292,-20.4997 -7.2808,-44.6744 2.4744,-76.9084 9.7551,-32.2341 32.5161,-72.5253 56.7623,-102.2143 24.2461,-29.689 49.976,-48.7743 77.6858,-66.5171 27.7099,-17.7428 57.3982,-34.1421 79.3116,-44.39183 21.9133,-10.24977 36.0505,-14.34955 47.012,-17.48773 10.9615,-3.13818 18.7466,-5.31456 23.5517,-6.68836 4.8051,-1.37379 6.6299,-1.94492 6.3783,4.13705 z"
       id="path9"
       inkscape:path-effect="#path-effect10"
       inkscape:original-d="m 1380.5213,967.24814 c -2.3279,12.73506 -4.6558,25.47011 -6.9838,38.20516 -0.8901,12.1191 -1.7801,24.2377 -2.6702,36.3565 0.2054,0.6163 0.4108,1.2325 0.6162,1.8487 2.191,-1.3694 4.382,-2.7387 6.5729,-4.1081 9.8596,-8.0794 19.7188,-16.1585 29.5782,-24.2377 9.3803,-6.6415 18.7603,-13.2828 28.1404,-19.92419 4.0397,-2.12256 8.0792,-4.24502 12.1188,-6.36753 -0.6846,1.16398 -1.3693,2.32791 -2.054,3.49187 -6.5731,10.88665 -13.1459,21.77285 -19.7188,32.65925 -2.8757,8.7641 -5.7513,17.5278 -8.627,26.2917 -1.4378,9.4488 -2.8756,18.8972 -4.3135,28.3458 0.2739,8.0794 0.5478,16.1585 0.8217,24.2377 -1.7118,0.4793 -3.4234,0.9586 -5.1351,1.4378 -9.1065,2.6019 -18.2125,5.2036 -27.3188,7.8054 -10.6128,4.382 -21.2251,8.7639 -31.8376,13.1459 -10.4759,5.2036 -20.9513,10.4071 -31.4269,15.6107 -9.7226,6.9154 -19.4449,13.8305 -29.1674,20.7458 -4.7928,5.3406 -9.5855,10.681 -14.3783,16.0215 -4.5874,6.3677 -9.1747,12.7351 -13.762,19.1026 -2.9442,4.9983 -5.8883,9.9963 -8.8324,14.9945 -1.6433,8.5587 -3.2865,17.117 -4.9297,25.6755 0,4.4505 0,8.9009 0,13.3513 1.2324,5.7514 2.4648,11.5026 3.6973,17.2539 2.6703,6.2992 5.3405,12.5982 8.0107,18.8972 3.2866,4.9983 6.573,9.9964 9.8594,14.9945 2.1911,3.0127 4.382,6.0252 6.573,9.0378 8.6956,4.6559 17.3908,9.3117 26.0863,13.9675 13.3515,5.3406 26.7025,10.681 40.0538,16.0215 32.1122,9.3803 64.223,18.7603 96.3345,28.1404 32.3861,8.1478 64.7708,16.2954 97.1562,24.4431 28.8941,7.5316 57.787,15.0629 86.6806,22.5944 31.4959,8.4902 62.9906,16.9801 94.4859,25.4701 34.4401,11.5029 68.8788,23.0053 103.3183,34.5079 27.1823,11.366 54.3636,22.7314 81.5454,34.0971 24.5121,13.4885 49.0231,26.9764 73.5347,40.4646 24.1012,26.5662 48.2015,53.1313 72.3022,79.6969 13.3516,21.2255 26.7026,42.4501 40.0539,63.6752 9.4487,24.9914 18.8971,49.9817 28.3457,74.9726 2.8757,21.4309 5.7513,42.861 8.627,64.2915 -0.6847,16.8434 -1.3694,33.6862 -2.054,50.5294 -0.6163,-4.1767 -1.2325,-8.3531 -1.8487,-12.5297 -2.7388,-14.8578 -5.4774,-29.7151 -8.2161,-44.5727 -6.3677,-15.8849 -12.7351,-31.7692 -19.1026,-47.6537 -6.7785,-9.6542 -13.5567,-19.308 -20.335,-28.962 -17.5282,-23.6904 -35.0557,-47.3799 -52.5835,-71.0699 -48.4763,-31.359 -96.9508,-62.7167 -145.4261,-94.0751 -77.5081,-30.2209 -155.013,-60.4406 -232.5194,-90.661 -91.6132,-17.8136 -183.2227,-35.6266 -274.834,-53.4399 -55.2789,-9.7551 -110.5556,-19.5098 -165.8334,-29.2647 -18.0964,-10.462 -36.1921,-20.9236 -54.2882,-31.3854 -15.9757,-14.4206 -31.9509,-28.8406 -47.9263,-43.2609 -4.8068,-16.824 -9.6135,-33.6473 -14.4203,-50.471 -3.2517,-24.1757 -6.5033,-48.3504 -9.7549,-72.5256 22.7619,-40.2929 45.5229,-80.5841 68.2844,-120.8761 25.7308,-19.086 51.4606,-38.1714 77.191,-57.257 29.6894,-16.3999 59.3777,-32.7992 89.0665,-49.19871 14.1379,-4.09997 28.2751,-8.19978 42.4127,-12.29967 7.7854,-2.17647 15.5705,-4.35285 23.3558,-6.52928 1.8249,-0.57114 3.6497,-1.14227 5.4745,-1.7134 z" /></g><g
     inkscape:groupmode="layer"
     id="layer5"
     inkscape:label="Layer 5"
     sodipodi:insensitive="true"
     style="display:inline"><text
       xml:space="preserve"
       id="text3"
       style="font-style:normal;font-variant:normal;font-weight:normal;font-stretch:normal;font-size:192px;font-family:'CaskaydiaCove Nerd Font Propo';-inkscape-font-specification:'CaskaydiaCove Nerd Font Propo, Normal';font-variant-ligatures:normal;font-variant-caps:normal;font-variant-numeric:normal;font-variant-east-asian:normal;white-space:pre;shape-inside:url(#rect3);display:inline;fill:#fffcff;fill-opacity:1;fill-rule:evenodd;stroke:#fffeff;stroke-width:4.15661;stroke-linecap:round;stroke-linejoin:round;stroke-dasharray:none;stroke-opacity:1;paint-order:stroke fill markers"
       transform="matrix(2.2926431,0,0,2.1176014,-549.91593,-550.05561)"
       sodipodi:insensitive="true"><tspan
         x="275.98047"
         y="1013.1015"
         id="tspan1">BlackDragon</tspan></text></g></svg>
