<?xml version="1.0" encoding="UTF-8" standalone="no"?>
<!-- Created with Inkscape (http://www.inkscape.org/) -->

<svg
   width="3000"
   height="3000"
   viewBox="0 0 3000 3000"
   version="1.1"
   id="svg1"
   inkscape:version="1.4 (e7c3feb1, 2024-10-09)"
   sodipodi:docname="Logo_knuddelzwerck.svg"
   inkscape:export-filename="Logo_knudelzwerck.jpg"
   inkscape:export-xdpi="96"
   inkscape:export-ydpi="96"
   xml:space="preserve"
   xmlns:inkscape="http://www.inkscape.org/namespaces/inkscape"
   xmlns:sodipodi="http://sodipodi.sourceforge.net/DTD/sodipodi-0.dtd"
   xmlns="http://www.w3.org/2000/svg"
   xmlns:svg="http://www.w3.org/2000/svg"><sodipodi:namedview
     id="namedview1"
     pagecolor="#505050"
     bordercolor="#ffffff"
     borderopacity="1"
     inkscape:showpageshadow="false"
     inkscape:pageopacity="0"
     inkscape:pagecheckerboard="1"
     inkscape:deskcolor="#505050"
     inkscape:document-units="mm"
     labelstyle="below"
     inkscape:clip-to-page="true"
     inkscape:lockguides="false"
     showguides="false"
     inkscape:zoom="0.31597072"
     inkscape:cx="1337.1492"
     inkscape:cy="1411.5232"
     inkscape:window-width="1920"
     inkscape:window-height="993"
     inkscape:window-x="0"
     inkscape:window-y="31"
     inkscape:window-maximized="1"
     inkscape:current-layer="layer3"
     inkscape:export-bgcolor="#2e344000" /><defs
     id="defs1"><inkscape:path-effect
       effect="spiro"
       id="path-effect6"
       is_visible="true"
       lpeversion="1" /><inkscape:path-effect
       effect="bspline"
       id="path-effect5"
       is_visible="true"
       lpeversion="1.3"
       weight="33.333333"
       steps="2"
       helper_size="0"
       apply_no_weight="true"
       apply_with_weight="true"
       only_selected="false"
       uniform="false" /><inkscape:path-effect
       effect="bspline"
       id="path-effect4"
       is_visible="true"
       lpeversion="1.3"
       weight="33.333333"
       steps="2"
       helper_size="0"
       apply_no_weight="true"
       apply_with_weight="true"
       only_selected="false"
       uniform="false" /><rect
       x="275.97966"
       y="835.82412"
       width="2495.6447"
       height="441.56746"
       id="rect3" /><rect
       x="102.50673"
       y="94.621599"
       width="2763.7392"
       height="2807.1074"
       id="rect2" /></defs><g
     inkscape:label="Layer 1"
     inkscape:groupmode="layer"
     id="layer1"
     sodipodi:insensitive="true"><circle
       style="fill:#7bbaa8;fill-opacity:1;stroke-width:1.2544"
       id="path1"
       cx="1500"
       cy="1500"
       r="1500"
       sodipodi:insensitive="true" /></g><g
     inkscape:groupmode="layer"
     id="layer2"
     inkscape:label="Layer 2"
     sodipodi:insensitive="true"
     style="display:inline"><circle
       style="fill:#2e3440;fill-opacity:1;stroke-width:4.21"
       id="path2"
       cx="1500"
       cy="1500"
       r="1400"
       inkscape:label="path2"
       sodipodi:insensitive="true" /></g><g
     inkscape:groupmode="layer"
     id="layer3"
     inkscape:label="Layer 3"><path
       fill="#000000"
       opacity="1"
       stroke="none"
       d="m 1534.1454,117.91144 c 62.5883,31.31939 91.4273,91.32009 128.8667,142.29307 113.1597,154.06437 214.316,315.87524 297.066,488.5181 26.1758,54.61167 52.2784,109.43833 71.1794,171.66343 20.542,-22.9305 40.1954,-41.7822 56.1435,-63.36849 26.2763,-35.56753 61.4829,-45.95283 102.1243,-38.36521 34.5997,6.45911 53.7194,31.05662 62.239,64.6554 22.5972,89.1228 29.3756,178.94756 8.4919,269.12426 -21.8974,94.5531 -99.9277,162.5407 -196.6466,174.2428 -49.0921,5.9395 -49.01,5.963 -62.2633,53.0163 -2.0826,7.3931 -5.11,14.5433 -8.0188,21.6767 -14.3974,35.3101 -8.7015,48.9416 27.8493,60.8932 62.3256,20.3806 120.9692,47.972 172.8749,88.2872 105.7818,82.1596 166.9656,187.7976 170.2412,324.2084 0.9881,41.1706 2.1806,81.4817 16.8169,122.4117 18.1162,50.6614 17.0718,105.2044 -14.7699,153.134 -32.9619,49.6158 -83.3796,68.4646 -140.1504,73.5236 -18.7633,1.6723 -40.0313,-4.0033 -55.9481,3.0984 -16.4155,7.3246 -11.868,31.7999 -18.3604,48.1563 -29.2539,73.6969 -86.3854,107.6742 -162.4619,113.3313 -18.1947,1.353 -24.733,7.9689 -22.9676,25.1406 0.5247,5.1021 0.7393,10.395 0,15.4419 -6.0275,41.4093 3.3877,70.8233 45.8613,92.3244 38.263,19.3689 53.5497,61.3327 56.9277,103.9974 2.3658,29.8858 -0.093,60.1231 0.808,90.1673 0.48,16.089 -8.4152,27.4042 -16.6986,41.4845 -119.5735,1.7279 -238.3645,1.7279 -360.7056,0.428 -57.7332,-29.458 -77.7015,-74.9383 -75.7958,-134.6176 2.1646,-67.8127 -0.165,-135.7589 0.8994,-203.6246 0.3405,-21.6585 -5.3319,-30.9173 -28.7844,-30.4439 -62.7291,1.2675 -125.512,1.0556 -188.2511,0.052 -21.723,-0.3559 -28.1037,7.8919 -27.8389,28.8336 0.9448,74.7443 -0.051,149.5117 0.6218,224.2618 0.1806,20.4012 -5.7958,38.4467 -12.9142,57.0298 -11.4153,29.8009 -38.2913,42.6341 -61.3939,59.827 -118.791,0 -237.5821,0 -358.79097,0 -40.85705,-78.6422 -25.84878,-225.3166 66.95727,-256.5506 6.279,-2.1138 14.5388,-5.8526 14.7999,-13.1375 1.0748,-29.9945 1.5124,-60.0535 0.7146,-90.0502 -0.2683,-10.0029 -10.4369,-9.0096 -18.1698,-9.9736 -37.45023,-4.6708 -73.77764,-10.7425 -105.98727,-34.2653 -34.60223,-25.2704 -56.48646,-58.2554 -64.47737,-98.6223 -5.39807,-27.2692 -17.37219,-34.5994 -43.16413,-32.4182 -47.66357,4.0318 -91.74052,-7.8202 -131.00615,-35.9342 -37.2701,-26.6854 -56.13858,-63.4604 -59.21149,-108.5942 -2.7157,-39.8806 1.14358,-78.7351 19.23863,-115.3217 8.27787,-16.737 7.46877,-35.1591 6.4021,-53.1178 -4.91035,-82.6614 12.62067,-159.9039 54.43896,-231.5608 29.72908,-50.9425 68.27123,-93.9202 115.87189,-128.7167 53.62782,-39.2028 111.32389,-70.3387 175.3612,-89.3515 29.49423,-8.7563 34.61413,-25.8651 27.71563,-56.1423 -11.17636,-49.0541 -31.85301,-74.467 -88.84633,-82.8339 -128.18814,-18.8193 -186.56843,-126.1186 -191.28119,-238.9923 -2.61308,-62.5906 -0.3147,-124.90046 14.80599,-186.43396 9.25376,-37.65495 25.4612,-69.67442 65.41665,-77.6483 42.00093,-8.38248 79.13029,1.69948 105.11406,41.62065 13.65323,20.97735 33.88002,37.68025 52.82651,58.13445 22.36915,-47.3371 37.38677,-94.64793 58.13151,-139.63606 52.1427,-113.0804 113.2925,-221.00695 180.2523,-325.77635 13.5321,-21.17209 40.9483,-27.06305 61.0405,-14.94483 18.7213,11.29172 24.2251,41.72027 10.7001,64.54617 -26.6203,44.92724 -55.311,88.69271 -80.457,134.41534 -56.1433,102.08638 -110.5152,205.13066 -146.4684,316.62083 -2.108,6.538 -5.0359,12.7552 -2.8041,21.7503 304.0539,48.49596 608.4878,48.43056 915.4226,-0.2683 -4.1819,-34.6731 -18.2483,-64.8847 -30.8046,-95.1723 -52.6132,-126.91389 -119.5221,-246.22318 -192.1259,-362.73393 -63.0145,-101.12222 -134.0583,-196.48207 -203.0741,-293.33889 -20.8473,-29.25711 -42.3571,-29.86866 -63.4815,-1.1539 -31.9626,43.44653 -63.3206,87.33662 -95.1315,130.89523 -5.5274,7.56808 -11.4702,14.99731 -18.1724,21.51335 -21.1334,20.54801 -40.0987,22.83533 -59.3096,7.90618 -16.1888,-12.58043 -22.733,-41.72309 -8.8908,-60.60574 42.4493,-57.90668 81.6442,-118.30763 128.6763,-172.73597 9.8908,-11.44668 23.5632,-19.62915 36.4526,-30.73571 28.596,-1.43772 56.2285,-1.43772 86.2735,-1.43772 m 524.1678,1987.58596 c -53.3018,0.051 -106.6038,0.2526 -159.9034,5e-4 -23.2215,-0.1069 -40.0494,-14.4481 -43.1284,-35.5176 -2.966,-20.2938 10.4442,-38.8114 32.5455,-45.9208 10.7764,-3.4665 21.5807,-4.888 32.8757,-4.8291 46.4242,0.2424 92.866,-0.6094 139.267,0.4538 19.9614,0.4589 28.3363,-6.1131 27.0701,-26.5827 -3.428,-55.4018 -6.4181,-110.7851 -15.3574,-165.7016 -13.5621,-83.3172 -36.5759,-163.6016 -77.5319,-237.7717 -12.4813,-22.6021 -25.0446,-46.3786 -48.2736,-60.4743 -10.5033,5.5801 -13.4256,14.9545 -17.4679,23.2503 -45.782,93.9576 -107.3017,177.4209 -177.4088,253.8824 -64.9383,70.8236 -138.9187,131.886 -221.163,182.8459 -26.0743,16.1564 -46.7262,14.9675 -70.7594,-0.9774 -37.1087,-24.6186 -73.1419,-50.2957 -107.9516,-78.3224 -106.1492,-85.4682 -190.466,-188.7433 -260.4131,-304.9049 -15.5735,-25.8622 -24.6873,-55.6952 -44.9949,-79.4597 -36.2258,34.1244 -59.11814,74.1801 -77.86968,116.6199 -46.09193,104.3192 -58.21352,215.6403 -63.74005,327.7447 -2.68937,54.5586 -6.34748,49.4383 49.44808,49.459 254.47675,0.092 508.95435,0 763.43115,0.068 14.5377,0 28.885,-0.1962 43.2873,4.3458 23.8914,7.5303 38.3229,24.906 35.6644,46.0384 -2.6873,21.3646 -20.4233,35.6247 -45.6171,35.6377 -268.2334,0.1341 -536.4663,0.1142 -804.69951,0.2785 -13.33322,0 -27.12316,-2.0152 -39.81763,3.5269 1.11353,10.0824 2.90303,18.4877 2.82361,26.8746 -0.40254,41.9307 -1.12179,37.9655 40.29801,37.9716 361.08292,0.056 722.16602,0.051 1083.24882,0.051 46.5559,6e-4 46.6357,0 49.6668,-47.1678 0.3715,-5.811 4.1985,-11.5718 0.6152,-17.5541 -5.7123,-5.4188 -12.904,-3.4196 -24.1443,-3.8554 m -975.3255,-728.5553 c 14.8241,53.3882 42.8782,100.8779 67.6907,149.7042 40.5246,79.7459 92.7849,151.2653 154.1828,216.4317 48.784,51.7785 100.8643,99.4709 158.2285,141.6869 21.0847,15.5165 38.0535,21.4999 61.5161,3.208 39.8467,-31.0652 80.0668,-61.7282 116.5008,-96.63 88.5718,-84.8468 159.664,-183.0594 215.3167,-292.1511 19.6714,-38.5601 37.3269,-78.3565 50.1147,-122.9858 -28.0101,-1.2833 -52.8908,5.592 -77.9817,6.4082 -24.7473,0.8046 -49.6826,-4.1475 -76.1093,-6.7269 25.4731,38.001 22.4554,58.5903 -11.3466,85.1528 -7.3517,5.7774 -15.2596,11.2508 -23.6958,15.1809 -62.4394,29.0906 -124.3543,17.8207 -184.1056,-7.0217 -27.7048,-11.5188 -50.2365,-11.0617 -77.6832,0.6792 -62.5074,26.7412 -126.5303,34.7454 -191.115,2.9504 -20.0916,-9.8916 -31.592,-24.6399 -40.1784,-44.1889 -8.4094,-19.1445 3.0242,-33.6647 10.2319,-50.7143 -35.5058,1.4174 -69.1969,6.0924 -103.4931,1.2771 -15.6261,-2.1941 -31.3159,-10.0181 -48.0735,-2.2607 m 499.7795,-184.5197 c 44.3276,1.4385 78.7933,20.3005 103.062,57.707 2.6987,4.1602 6.9269,7.9635 11.3156,10.2983 73.7916,39.2576 149.095,45.8286 226.4877,10.4408 12.0593,-5.514 18.6354,-13.7563 21.5215,-26.469 11.942,-52.5996 16.6878,-106.2039 22.8681,-159.608 1.7932,-15.4926 -5.3179,-23.2983 -20.9836,-20.358 -26.9082,5.0511 -54.2631,6.7114 -81.1922,10.7082 -110.2284,16.3601 -221.2894,21.0293 -332.3053,24.0647 -105.2808,2.878 -210.3634,-4.1959 -315.3462,-14.0534 -56.1522,-5.2724 -112.0629,-12.0253 -167.9817,-18.8719 -24.2538,-2.9693 -30.3607,0.8062 -27.517,24.6294 4.8499,40.6373 9.763,81.2846 15.7977,121.7567 4.1828,28.0531 8.7068,54.8981 43.0521,65.9025 43.3488,13.889 87.4789,20.6673 131.2028,11.7041 40.4879,-8.2993 80.5348,-20.628 107.7389,-58.4325 26.6368,-37.0158 69.2533,-42.1278 110.926,-40.8084 31.2071,0.9878 61.4944,10.4662 93.9074,4.3641 16.8807,-3.1783 34.9985,-9.525 57.4462,-2.9746 M 1327.572,2303.0511 c 213.06,0 426.1202,0.1143 639.1797,-0.1488 33.833,-0.051 64.914,-8.0256 91.4526,-40.292 -377.1648,0 -748.8743,0 -1125.12644,0 24.17841,32.8009 55.26051,39.8442 87.78844,40.1219 100.5088,0.8586 201.0292,0.3145 306.7057,0.3197 m 732.004,-1062.9183 c 40.1138,-12.059 77.2157,-28.7598 97.9879,-68.2276 45.4427,-86.3435 28.3232,-174.71266 10.3445,-269.20436 -33.2747,36.6112 -61.8845,69.0943 -91.6559,100.47626 -18.4392,19.4375 -24.7135,41.3882 -22.2232,67.5832 1.3572,14.2702 -0.7245,28.6862 -3.0637,43.2265 -5.6699,35.2473 -8.1606,71.0011 -12.1086,106.5309 -1.4316,12.8837 0.3661,22.538 20.719,19.6151 M 823.28248,909.70704 c -17.65901,53.644 -19.09659,109.01156 -17.69872,164.71566 0.96607,38.4901 9.67575,75.0618 33.04707,105.9023 27.82498,36.717 64.16173,59.4398 114.68612,59.6884 -6.37425,-69.9872 -18.69407,-136.4524 -17.76273,-203.9615 0.0514,-3.1051 -1.75757,-6.7819 -3.80601,-9.2885 C 898.31915,985.86164 864.41406,945.37254 823.28248,909.70704 M 2100.4049,1602.3858 c 37.8441,94.31 58.2225,192.6909 67.0855,293.5436 1.3983,15.9155 7.235,20.8823 22.1123,20.4135 21.4609,-0.6761 42.9922,-0.8705 64.4324,0.088 17.965,0.8009 23.3993,-6.668 24.1547,-24.2111 3.2916,-76.4084 -21.7929,-143.4251 -68.038,-202.3537 -29.6263,-37.7513 -61.3938,-74.7096 -109.7469,-87.4785 M 712.78126,1855.09 c 0,12.0125 0.81797,24.0991 -0.23732,36.0194 -1.67752,18.9475 5.67197,26.5195 24.98222,25.3435 20.52498,-1.2505 41.20429,-0.79 61.78284,-0.092 15.90567,0.54 22.02049,-5.0499 23.86262,-21.9251 5.63647,-51.6392 12.36154,-103.0736 23.74022,-154.0604 11.06537,-49.5832 29.85661,-96.46 46.81585,-147.9885 -101.83327,60.6017 -164.09963,143.474 -180.94643,262.7038 m 990.71264,752.3191 c -5e-4,57.4247 7.5594,70.5409 49.274,71.5353 70.2631,1.6747 140.5928,0.5055 210.8949,0.5896 10.4034,0 17.622,-2.3463 19.8955,-14.7833 9.0989,-49.7684 -22.0187,-89.3689 -72.3266,-89.7814 -60.0098,-0.4902 -120.0394,0.559 -180.0351,-0.48 -21.3239,-0.3712 -30.5419,7.0121 -27.7027,32.9212 m -417.3495,40.5561 c 0.3252,-14.5954 -0.3044,-29.2899 1.1941,-43.7642 2.2853,-22.0561 -5.2722,-30.4546 -28.64,-29.8586 -58.4364,1.4912 -116.9369,0.3044 -175.4105,0.549 -49.975,0.2115 -77.2772,29.3158 -76.8066,78.814 0.1806,18.993 7.2805,26.067 25.8987,25.9323 67.0699,-0.4849 134.1533,0.3973 201.2149,-0.4796 20.7171,-0.2734 41.4371,-4.4192 52.5494,-31.1901 m 294.0855,-1368.5158 c -6.3475,-2.9388 -12.6541,-4.5656 -19.8664,-2.602 -43.0123,11.71 -85.8777,10.1695 -129.3746,1.0202 -21.2406,-4.4679 -40.455,3.6084 -51.8361,24.0177 -17.5295,31.4355 -21.8505,66.9232 -33.703,101.8563 13.1853,1.9415 22.92,1.5732 33.281,-0.3146 29.2801,-5.3371 55.1831,-18.7294 80.4073,-33.1134 24.9792,-14.2442 48.2978,-14.3783 72.6892,0.4694 24.3099,14.7996 51.1015,23.9547 78.2462,32.0529 11.4804,3.425 22.8172,4.8221 34.1261,-1.1033 -7.5069,-26.9138 -13.7398,-52.5665 -21.9351,-77.5769 -6.3882,-19.4946 -13.6852,-39.529 -42.0346,-44.7063 m -335.9575,1209.3053 c 42.8673,-0.073 42.874,-0.073 42.8704,-43.6448 0,-11.1562 -0.648,-22.3486 0.051,-33.4595 1.0438,-16.8329 -6.6431,-23.001 -22.9569,-22.6034 -26.5991,0.6481 -53.2259,0.1538 -79.8409,0.1489 -78.8933,0 -78.5321,-0.05 -74.6568,78.5057 0.7576,15.3532 5.9265,21.4497 21.4043,21.1897 36.0487,-0.6051 72.1154,-0.1605 113.1379,-0.134 m 636.2054,-47.5213 c 0,-6.8604 -0.8106,-13.8365 0.1495,-20.5593 3.5172,-24.6013 -6.1302,-34.0209 -31.273,-31.977 -23.8639,1.94 -48.0154,0.051 -72.0267,0.5294 -88.5872,1.7627 -71.9411,-16.0532 -73.8102,76.9953 0,0.8566 0.073,1.7174 0,2.5717 -0.7719,14.1467 5.9709,20.0896 20.0528,19.9957 45.4655,-0.3044 90.9362,-0.3044 136.4016,4e-4 13.7601,0.092 21.1071,-5.0016 20.4657,-19.5306 -0.3405,-7.7009 0,-15.4313 0,-28.0256 m 367.3931,-309.2087 c 60.2008,-19.1507 62.5677,-71.2367 50.8047,-111.4425 -3.5264,-12.0538 -10.1294,-18.8002 -23.9049,-18.4256 -26.5985,0.7227 -53.25,0.9655 -79.8381,0.1069 -17.1032,-0.5519 -22.808,6.6959 -22.2072,22.9776 0.8225,22.2839 0.8535,44.6404 0.1184,66.9297 -1.6214,49.3069 -1.8912,49.4379 48.496,45.5494 7.5698,-0.5843 14.9839,-3.1859 26.5292,-5.6962 M 686.93066,2045.7229 c -0.69605,17.1801 -0.94846,34.4897 8.16702,49.8423 19.29265,32.4952 81.10649,54.3677 116.3023,41.7624 6.38204,-2.2858 10.92911,-6.2512 9.49356,-13.1311 -7.07918,-33.9297 -2.08208,-68.2168 -3.36284,-102.3061 -0.54237,-14.4308 -7.01052,-19.7771 -20.66592,-19.5546 -21.40464,0.3508 -42.81875,0.1026 -64.22822,0.1909 -37.87585,0.149 -37.87585,0.1752 -45.7059,43.198 z"
       id="path1-5"
       style="fill:#cf2a31;fill-opacity:0.14901961;stroke-width:5.15897" /><path
       fill="#000000"
       opacity="1"
       stroke="none"
       d="m 1700.0076,1151.4335 c 2.966,-26.0457 15.5904,-39.4881 40.2476,-39.795 25.8446,-0.3196 40.6876,10.5617 44.3049,36.5797 2.5723,18.5028 2.6021,37.8307 0.4387,56.4017 -2.8176,24.1477 -21.9801,36.3776 -48.5503,34.295 -21.3496,-1.6735 -35.8603,-17.9411 -36.4151,-41.4127 -0.3457,-14.5716 -0.056,-29.159 0,-46.0687 z"
       id="path2-7"
       style="fill:#cf2a31;fill-opacity:0.14901961;stroke-width:5.15897" /><path
       fill="#000000"
       opacity="1"
       stroke="none"
       d="m 1204.5683,1180.0684 c 0.7564,-14.2242 -1.0228,-26.0896 2.9062,-37.9308 7.6375,-23.0171 23.777,-34.3224 49.0512,-30.0989 22.0659,3.6873 34.1265,17.716 34.1029,40.8476 0,12.8392 0.1246,25.6796 0,38.5184 -0.2631,30.5976 -14.2859,46.9147 -40.759,47.5899 -28.42,0.7252 -43.6305,-14.8106 -45.2517,-46.2902 -0.1756,-3.4155 -0.052,-6.8464 -0.063,-12.636 z"
       id="path3"
       style="fill:#cf2a31;fill-opacity:0.14901961;stroke-width:5.15897" /></g><g
     inkscape:groupmode="layer"
     id="layer5"
     inkscape:label="Layer 5"
     sodipodi:insensitive="true"
     style="display:inline"><text
       xml:space="preserve"
       id="text3"
       style="font-style:normal;font-variant:normal;font-weight:normal;font-stretch:normal;font-size:192px;font-family:'CaskaydiaCove Nerd Font Propo';-inkscape-font-specification:'CaskaydiaCove Nerd Font Propo, Normal';font-variant-ligatures:normal;font-variant-caps:normal;font-variant-numeric:normal;font-variant-east-asian:normal;white-space:pre;shape-inside:url(#rect3);display:inline;fill:#fffcff;fill-opacity:1;fill-rule:evenodd;stroke:#fffeff;stroke-width:4.15661;stroke-linecap:round;stroke-linejoin:round;stroke-dasharray:none;stroke-opacity:1;paint-order:stroke fill markers"
       transform="matrix(1.9146119,0,0,2.3844005,-434.98582,-782.97032)"><tspan
         x="275.98047"
         y="1013.1015"
         id="tspan2">knuddelzwerck</tspan></text></g></svg>
